<svg width="134" height="97" viewBox="0 0 134 97" fill="none" xmlns="http://www.w3.org/2000/svg">
<g clip-path="url(#clip0_923_194)">
<path d="M31.02 54.69V94.83H19.04C16.67 94.83 13.63 93.79 11.53 93.79C8.31 93.79 6.27 94.9 4.42 96.09H4.22C4.31 91.49 2.11 83.61 0.00999999 80.56V80.18C12.85 80.18 11.53 93.4 18.27 93.4C20.58 93.4 20.91 90.54 20.91 87.17V54.69C20.91 50.78 19.31 48.57 14.4 48.39V47.48H37.53V48.39C32.62 48.58 31.02 50.78 31.02 54.69ZM51.92 80.55C49.82 83.6 47.62 91.49 47.71 96.08H47.51C45.66 94.89 43.62 93.78 40.4 93.78C38.3 93.78 35.26 94.82 32.89 94.82H31.02V87.16C31.02 90.53 31.35 93.39 33.66 93.39C40.4 93.39 39.08 80.17 51.93 80.17V80.55H51.92Z" fill="black"/>
<path d="M37.53 47.71V48.62H14.4V47.71C19.31 47.52 20.91 45.32 20.91 41.41V8.92C20.91 5.55 20.58 2.69 18.27 2.69C11.52 2.7 12.85 15.92 0 15.92V15.54C2.11 12.48 4.31 4.6 4.22 0H4.42C6.27 1.19 8.31 2.3 11.53 2.3C13.63 2.3 16.67 1.26 19.04 1.26H31.02V41.4C31.02 45.31 32.62 47.52 37.53 47.7V47.71ZM51.92 15.92C39.07 15.92 40.4 2.7 33.65 2.7C31.34 2.7 31.01 5.56 31.01 8.93V1.26H32.88C35.25 1.26 38.29 2.3 40.39 2.3C43.61 2.3 45.65 1.19 47.5 0H47.7C47.61 4.6 49.81 12.48 51.91 15.53V15.91L51.92 15.92Z" fill="black"/>
<path d="M97.15 61.8201C97.15 70.3201 88.33 74.9101 78.79 74.9101H70.81V88.8701C70.81 92.7801 72.41 94.9901 77.32 95.1801V96.0901H54.19V95.1801C59.1 94.9901 60.7 92.7801 60.7 88.8701V54.9501C60.7 51.0401 59.1 48.8301 54.19 48.6501V47.7401H70.81C73.18 47.7401 73.39 47.7401 75.86 47.7401C85.93 47.7401 97.15 53.1001 97.15 61.8301V61.8201ZM86.37 61.6001C86.37 54.7501 81.89 49.6801 75.75 49.6801C72.5 49.6801 70.8 50.5401 70.8 52.4001V72.9901H77.9C83.34 72.9901 86.36 68.6601 86.36 61.6001H86.37Z" fill="black"/>
<path d="M111.63 47.7301H116.68H133.3V48.6401C128.39 48.8301 126.79 51.0301 126.79 54.9401V88.8601C126.79 92.7701 128.39 94.9801 133.3 95.1701V96.0801H110.17V95.1701C115.08 94.9801 116.68 92.7701 116.68 88.8601V74.9001H108.7C99.16 74.9001 90.34 70.3101 90.34 61.8101C90.34 53.3101 101.56 47.7201 111.63 47.7201V47.7301ZM109.58 72.9901H116.68V52.4001C116.68 50.5401 114.99 49.6801 111.73 49.6801C105.59 49.6801 101.11 54.7601 101.11 61.6001C101.11 68.4401 104.13 72.9901 109.57 72.9901H109.58Z" fill="black"/>
<path d="M90.33 34.4601C90.33 25.9601 99.15 21.3701 108.7 21.3701H116.68V7.27006C116.68 3.36006 115.08 1.15006 110.17 0.960059V0.0600586H133.3V0.970059C128.39 1.16006 126.79 3.37006 126.79 7.28006V41.3401C126.79 45.2501 128.39 47.4601 133.3 47.6401V48.5501H116.68C114.31 48.5501 114.1 48.5501 111.63 48.5501C101.56 48.5501 90.34 43.1901 90.34 34.4601H90.33ZM101.11 34.6801C101.11 41.5301 105.59 46.6001 111.73 46.6001C114.98 46.6001 116.68 45.7401 116.68 43.8801V23.2901H109.58C104.14 23.2901 101.12 27.6201 101.12 34.6801H101.11Z" fill="black"/>
<path d="M75.86 48.5501H70.81H54.19V47.6401C59.1 47.4501 60.7 45.2501 60.7 41.3401V7.27006C60.7 3.36006 59.1 1.15006 54.19 0.960059V0.0600586H77.32V0.970059C72.41 1.16006 70.81 3.37006 70.81 7.28006V21.3701H78.79C88.33 21.3701 97.15 25.9601 97.15 34.4601C97.15 42.9601 85.93 48.5501 75.86 48.5501ZM79.77 45.8001C83.75 44.1201 86.37 39.9101 86.37 34.6701C86.37 27.6101 83.35 23.2801 77.91 23.2801H70.81V43.8701C70.81 45.7301 72.5 46.5901 75.76 46.5901C77.2 46.5901 78.55 46.3101 79.77 45.7901" fill="black"/>
</g>
<defs>
<clipPath id="clip0_923_194">
<rect width="133.3" height="96.09" fill="white"/>
</clipPath>
</defs>
</svg>
