<?xml version="1.0" encoding="UTF-8"?>
<svg id="Layer_2" data-name="Layer 2" xmlns="http://www.w3.org/2000/svg" viewBox="0 0 45.88 64.5">
  <path d="M45.88,17.15c0,10.7-8.11,17.15-16.82,17.15s-16.82-6.46-16.82-17.15S20.36,0,29.06,0s16.82,6.45,16.82,17.15ZM38.25,17.15c0-8.81-3.6-15.98-9.19-15.98s-9.19,7.17-9.19,15.98,3.6,15.96,9.19,15.96,9.19-7.14,9.19-15.96Z"/>
  <path d="M45.88,47.35c0,10.7-8.11,17.15-16.82,17.15s-16.82-6.46-16.82-17.15,8.11-17.15,16.82-17.15,16.82,6.45,16.82,17.15ZM38.25,47.35c0-8.81-3.6-15.98-9.19-15.98s-9.19,7.17-9.19,15.98,3.6,15.96,9.19,15.96,9.19-7.14,9.19-15.96Z"/>
  <path d="M33.63,32.25c0,10.7-8.11,17.15-16.82,17.15S0,42.95,0,32.25,8.11,15.1,16.82,15.1s16.82,6.45,16.82,17.15ZM26,32.25c0-8.81-3.6-15.98-9.19-15.98s-9.19,7.17-9.19,15.98,3.6,15.96,9.19,15.96,9.19-7.14,9.19-15.96Z"/>
</svg>