<svg width="107" height="97" viewBox="0 0 107 97" fill="none" xmlns="http://www.w3.org/2000/svg">
<g clip-path="url(#clip0_922_156)">
<path d="M31.02 54.69V94.83H19.04C16.67 94.83 13.63 93.79 11.53 93.79C8.30999 93.79 6.26999 94.9 4.41999 96.09H4.21999C4.30999 91.49 2.10999 83.61 0.00999451 80.56V80.18C12.85 80.18 11.53 93.4 18.27 93.4C20.58 93.4 20.91 90.54 20.91 87.17V54.69C20.91 50.78 19.31 48.57 14.4 48.39V47.48H37.53V48.39C32.62 48.58 31.02 50.78 31.02 54.69ZM51.92 80.55C49.82 83.6 47.62 91.49 47.71 96.08H47.51C45.66 94.89 43.62 93.78 40.4 93.78C38.3 93.78 35.26 94.82 32.89 94.82H31.02V87.16C31.02 90.53 31.35 93.39 33.66 93.39C40.4 93.39 39.08 80.17 51.93 80.17V80.55H51.92Z" fill="black"/>
<path d="M37.53 47.71V48.62H14.4V47.71C19.31 47.52 20.91 45.32 20.91 41.41V8.92C20.91 5.55 20.58 2.69 18.27 2.69C11.52 2.7 12.85 15.92 0 15.92V15.54C2.11 12.48 4.31 4.6 4.22 0H4.42C6.27 1.19 8.3 2.3 11.53 2.3C13.63 2.3 16.67 1.26 19.04 1.26H31.02V41.4C31.02 45.31 32.62 47.52 37.53 47.7V47.71ZM51.92 15.92C39.07 15.92 40.4 2.7 33.65 2.7C31.34 2.7 31.01 5.56 31.01 8.93V1.26H32.88C35.25 1.26 38.29 2.3 40.39 2.3C43.61 2.3 45.65 1.19 47.5 0H47.7C47.61 4.6 49.81 12.48 51.91 15.53V15.91L51.92 15.92Z" fill="black"/>
<path d="M85.72 55.23V95.37H73.74C71.37 95.37 68.33 94.33 66.23 94.33C63.01 94.33 60.97 95.44 59.12 96.63H58.92C59.01 92.03 56.81 84.15 54.71 81.1V80.72C67.55 80.72 66.23 93.94 72.97 93.94C75.28 93.94 75.61 91.08 75.61 87.71V55.23C75.61 51.32 74.01 49.11 69.1 48.93V48.02H92.23V48.93C87.32 49.12 85.72 51.32 85.72 55.23ZM106.63 81.1C104.53 84.15 102.33 92.04 102.42 96.63H102.22C100.37 95.44 98.33 94.33 95.11 94.33C93.01 94.33 89.97 95.37 87.6 95.37H85.73V87.71C85.73 91.08 86.06 93.94 88.37 93.94C95.11 93.94 93.79 80.72 106.64 80.72V81.1H106.63Z" fill="black"/>
<path d="M92.23 48.25V49.16H69.1V48.25C74.01 48.0601 75.61 45.8601 75.61 41.9501V9.47005C75.61 6.10005 75.28 3.24005 72.97 3.24005C66.23 3.24005 67.55 16.46 54.7 16.46V16.08C56.81 13.03 59.01 5.14005 58.92 0.550049H59.12C60.97 1.74005 63.01 2.85005 66.23 2.85005C68.33 2.85005 71.37 1.81005 73.74 1.81005H85.72V41.9501C85.72 45.8601 87.32 48.07 92.23 48.25ZM106.63 16.46C93.78 16.46 95.11 3.24005 88.36 3.24005C86.05 3.24005 85.72 6.10005 85.72 9.47005V1.81005H87.59C89.96 1.81005 93 2.85005 95.1 2.85005C98.32 2.85005 100.36 1.74005 102.21 0.550049H102.41C102.32 5.15005 104.52 13.03 106.62 16.08V16.46H106.63Z" fill="black"/>
</g>
<defs>
<clipPath id="clip0_922_156">
<rect width="106.63" height="96.63" fill="white"/>
</clipPath>
</defs>
</svg>
