<?xml version="1.0" encoding="UTF-8"?>
<svg id="Layer_2" data-name="Layer 2" xmlns="http://www.w3.org/2000/svg" viewBox="0 0 83.73 64.63">
  <path d="M55.13,31.79v.63h-17.2v-.63h.52c3.49,0,3.98-2.6,2.84-4.66,0,0-5.11-9.13-5.11-9.13l-3.11,4.93c-1.4,2.49-2.2,8.86,1.95,8.86v.63h-13.86v-.63c4.74-1.47,9.29-7.39,10.71-9.47l3.58-5.61s-6.48-11.02-6.56-11.16c-1.21-2.12-3.2-4.93-5.8-4.93V0h15.95v.62c-2.57,0-3.78,2.26-2.69,4.26.02.03,4.47,7.85,4.47,7.85l2.32-3.71c1.74-2.82,1.4-8.41-1.67-8.41V0h12.45v.62c-3.25.59-7.69,6.07-9.2,8.3l-3.21,5.01s7.54,12.8,8.15,13.77c1.25,1.96,3.07,4.08,5.48,4.08Z"/>
  <path d="M5.48,27.7c.61-.96,8.15-13.77,8.15-13.77l-3.21-5.01C8.91,6.7,4.47,1.21,1.22.62v-.62h12.45v.62c-3.07,0-3.41,5.59-1.67,8.41l2.32,3.71s4.45-7.82,4.47-7.85c1.08-2-.13-4.26-2.69-4.26V0h15.95v.62c-2.6,0-4.59,2.81-5.8,4.93-.08.14-6.56,11.16-6.56,11.16l3.58,5.61c1.42,2.08,5.97,7.99,10.71,9.47v.63h-13.86v-.63c4.15,0,3.35-6.37,1.95-8.86l-3.11-4.93s-5.11,9.12-5.11,9.13c-1.14,2.05-.64,4.66,2.84,4.66h.52v.63H0v-.63c2.41,0,4.23-2.12,5.48-4.08Z"/>
  <path d="M64.51,4.96v22.53c0,2.68,1.1,4.19,4.46,4.31v.63h-15.83v-.63c3.36-.13,4.46-1.64,4.46-4.31V4.96c0-2.68-1.1-4.19-4.46-4.32V.02h15.83v.63c-3.36.13-4.46,1.64-4.46,4.32Z"/>
  <path d="M68.97,63.98v.63h-15.83v-.63c3.36-.13,4.46-1.64,4.46-4.32v-22.53c0-2.68-1.1-4.19-4.46-4.31v-.63h15.83v.63c-3.36.13-4.46,1.64-4.46,4.31v22.53c0,2.68,1.1,4.19,4.46,4.32Z"/>
  <path d="M79.28,4.96v22.53c0,2.68,1.1,4.19,4.46,4.31v.63h-15.83v-.63c3.36-.13,4.46-1.64,4.46-4.31V4.96c0-2.68-1.1-4.19-4.46-4.32V.02h15.83v.63c-3.36.13-4.46,1.64-4.46,4.32Z"/>
  <path d="M83.73,63.98v.63h-15.83v-.63c3.36-.13,4.46-1.64,4.46-4.32v-22.53c0-2.68-1.1-4.19-4.46-4.31v-.63h15.83v.63c-3.36.13-4.46,1.64-4.46,4.31v22.53c0,2.68,1.1,4.19,4.46,4.32Z"/>
  <path d="M49.65,36.92c-.61.96-8.15,13.77-8.15,13.77l3.21,5.01c1.51,2.23,5.95,7.71,9.2,8.3v.62h-12.45v-.62c3.07,0,3.41-5.59,1.67-8.41l-2.32-3.71s-4.45,7.82-4.47,7.85c-1.08,2,.13,4.26,2.69,4.26v.62h-15.95v-.62c2.6,0,4.59-2.81,5.8-4.93.08-.14,6.56-11.16,6.56-11.16l-3.58-5.61c-1.42-2.08-5.97-7.99-10.71-9.47v-.63h13.86v.63c-4.15,0-3.35,6.37-1.95,8.86l3.11,4.93s5.11-9.12,5.11-9.13c1.14-2.05.64-4.66-2.84-4.66h-.52v-.63h17.2v.63c-2.41,0-4.23,2.12-5.48,4.08Z"/>
  <path d="M0,32.84v-.63s17.2,0,17.2,0v.63s-.52,0-.52,0c-3.49,0-3.98,2.6-2.84,4.66,0,0,5.11,9.13,5.11,9.13l3.11-4.93c1.4-2.49,2.2-8.86-1.95-8.86v-.63s13.86,0,13.86,0v.63c-4.74,1.47-9.29,7.39-10.71,9.47l-3.58,5.61s6.48,11.02,6.56,11.16c1.21,2.12,3.2,4.93,5.8,4.93v.62s-15.95,0-15.95,0v-.62c2.57,0,3.78-2.26,2.69-4.26-.02-.03-4.47-7.85-4.47-7.85l-2.32,3.71c-1.74,2.82-1.4,8.41,1.67,8.41v.62s-12.45,0-12.45,0v-.62c3.25-.59,7.69-6.07,9.2-8.3l3.21-5.01s-7.54-12.8-8.15-13.77C4.23,34.96,2.41,32.84,0,32.84Z"/>
</svg>