<?xml version="1.0" encoding="UTF-8"?>
<svg id="Layer_2" data-name="Layer 2" xmlns="http://www.w3.org/2000/svg" viewBox="0 0 109.9 64.42">
  <path d="M54.95,31.69v.62h-17.15v-.62h.52c3.48,0,3.97-2.6,2.83-4.64,0,0-5.1-9.1-5.1-9.1l-3.1,4.91c-1.4,2.48-2.19,8.83,1.94,8.83v.62h-13.81v-.62c4.72-1.47,9.26-7.37,10.68-9.44l3.57-5.59s-6.46-10.98-6.54-11.12c-1.21-2.11-3.19-4.91-5.78-4.91V0h15.9v.62c-2.56,0-3.76,2.26-2.68,4.25.02.03,4.46,7.83,4.46,7.83l2.31-3.7c1.73-2.81,1.39-8.38-1.67-8.38V0h12.41v.62c-3.24.59-7.67,6.05-9.17,8.27l-3.2,5s7.52,12.76,8.13,13.72c1.24,1.96,3.06,4.07,5.46,4.07Z"/>
  <path d="M5.46,27.61c.61-.96,8.13-13.72,8.13-13.72l-3.2-5C8.88,6.68,4.46,1.21,1.22.62V0h12.41v.62c-3.06,0-3.4,5.57-1.67,8.38l2.31,3.7s4.44-7.8,4.46-7.83c1.08-1.99-.13-4.25-2.68-4.25V0h15.9v.62c-2.59,0-4.57,2.8-5.78,4.91-.08.14-6.54,11.12-6.54,11.12l3.57,5.59c1.41,2.07,5.95,7.97,10.68,9.44v.62h-13.81v-.62c4.13,0,3.34-6.35,1.94-8.83l-3.1-4.91s-5.09,9.09-5.1,9.1c-1.14,2.05-.64,4.64,2.83,4.64h.52v.62H0v-.62c2.4,0,4.22-2.12,5.46-4.07Z"/>
  <path d="M49.49,36.8c-.61.96-8.13,13.72-8.13,13.72l3.2,5c1.5,2.22,5.93,7.69,9.17,8.27v.62h-12.41v-.62c3.06,0,3.4-5.57,1.67-8.38l-2.31-3.7s-4.44,7.8-4.46,7.83c-1.08,1.99.13,4.25,2.68,4.25v.62h-15.9v-.62c2.59,0,4.57-2.8,5.78-4.91.08-.14,6.54-11.12,6.54-11.12l-3.57-5.59c-1.41-2.07-5.95-7.97-10.68-9.44v-.62h13.81v.62c-4.13,0-3.34,6.35-1.94,8.83l3.1,4.91s5.09-9.09,5.1-9.1c1.14-2.05.64-4.64-2.83-4.64h-.52v-.62h17.15v.62c-2.4,0-4.22,2.12-5.46,4.07Z"/>
  <path d="M0,32.73v-.62s17.15,0,17.15,0v.62s-.52,0-.52,0c-3.48,0-3.97,2.6-2.83,4.64,0,0,5.1,9.1,5.1,9.1l3.1-4.91c1.4-2.48,2.19-8.83-1.94-8.83v-.62s13.81,0,13.81,0v.62c-4.72,1.47-9.26,7.37-10.68,9.44l-3.57,5.59s6.46,10.98,6.54,11.12c1.21,2.11,3.19,4.91,5.78,4.91v.62s-15.9,0-15.9,0v-.62c2.56,0,3.76-2.26,2.68-4.25-.02-.03-4.46-7.83-4.46-7.83l-2.31,3.7c-1.73,2.81-1.39,8.38,1.67,8.38v.62s-12.41,0-12.41,0v-.62c3.24-.59,7.67-6.05,9.17-8.27l3.2-5s-7.52-12.76-8.13-13.72C4.22,34.85,2.4,32.73,0,32.73Z"/>
  <path d="M74.63,32.27v-.62c4.35,0,5.56-5.33,3.83-9.29l-5.66-13-6.9,16.81c-.7,1.67-.25,5.48,3.62,5.48v.62h-16.56v-.62c2.35,0,4.03-1.95,4.75-3.57L69.88,0h.24s9.69,21.77,9.69,21.77c1.23,2.75,4.55,9.15,8.07,9.89v.62h-13.25Z"/>
  <path d="M74.97,32.27v-.62c3.52-.74,6.84-7.13,8.07-9.89L92.73,0h.24l12.18,28.08c.72,1.63,2.4,3.57,4.76,3.57v.62h-16.57v-.62c3.87,0,4.32-3.81,3.62-5.48l-6.9-16.81-5.66,13c-1.73,3.96-.53,9.29,3.83,9.29v.62h-13.25Z"/>
  <path d="M87.87,32.15v.62c-3.52.74-6.84,7.13-8.07,9.89l-9.69,21.77h-.24s-12.18-28.08-12.18-28.08c-.72-1.63-2.4-3.57-4.76-3.57v-.62h16.57v.62c-3.87,0-4.32,3.81-3.62,5.48l6.9,16.81,5.66-13c1.73-3.96.53-9.29-3.83-9.29v-.62h13.25Z"/>
  <path d="M88.22,32.15v.62c-4.35,0-5.56,5.33-3.83,9.29l5.66,13,6.9-16.81c.7-1.67.25-5.48-3.62-5.48v-.62h16.56v.62c-2.35,0-4.03,1.95-4.75,3.57l-12.18,28.08h-.24s-9.69-21.77-9.69-21.77c-1.23-2.75-4.55-9.15-8.07-9.89v-.62h13.25Z"/>
</svg>