<?xml version="1.0" encoding="UTF-8"?>
<svg id="Layer_2" data-name="Layer 2" xmlns="http://www.w3.org/2000/svg" viewBox="0 0 87.78 64.5">
  <path d="M22.03,32.27v-.62c3.52-.74,6.84-7.13,8.07-9.89L39.79,0h.24l12.18,28.08c.72,1.63,2.4,3.57,4.76,3.57v.62h-16.57v-.62c3.87,0,4.32-3.81,3.62-5.48l-6.9-16.81-5.66,13c-1.73,3.96-.53,9.29,3.83,9.29v.62h-13.25Z"/>
  <path d="M21.68,32.27v-.62c4.35,0,5.56-5.33,3.83-9.29l-5.66-13-6.9,16.81c-.7,1.67-.25,5.48,3.62,5.48v.62H0v-.62c2.35,0,4.03-1.95,4.75-3.57L16.93,0h.24s9.69,21.77,9.69,21.77c1.23,2.75,4.55,9.15,8.07,9.89v.62h-13.25Z"/>
  <path d="M67.89,4.92v22.46c0,2.67,1.09,4.17,4.44,4.3v.62h-15.78v-.62c3.35-.13,4.44-1.63,4.44-4.3V4.92c0-2.67-1.09-4.17-4.44-4.3V0h15.78v.62c-3.35.13-4.44,1.63-4.44,4.3Z"/>
  <path d="M83.34,4.92v22.46c0,2.67,1.09,4.17,4.44,4.3v.62h-15.78v-.62c3.35-.13,4.44-1.63,4.44-4.3V4.92c0-2.67-1.09-4.17-4.44-4.3V0h15.78v.62c-3.35.13-4.44,1.63-4.44,4.3Z"/>
  <path d="M35.28,32.15v.62c-4.35,0-5.56,5.33-3.83,9.29l5.66,13,6.9-16.81c.7-1.67.25-5.48-3.62-5.48v-.62h16.56v.62c-2.35,0-4.03,1.95-4.75,3.57l-12.18,28.08h-.24l-9.69-21.77c-1.23-2.75-4.55-9.15-8.07-9.89v-.62h13.25Z"/>
  <path d="M34.93,32.15v.62c-3.52.74-6.84,7.13-8.07,9.89l-9.69,21.77h-.24s-12.18-28.08-12.18-28.08c-.72-1.63-2.4-3.57-4.76-3.57v-.62h16.57s0,.62,0,.62c-3.87,0-4.32,3.81-3.62,5.48l6.9,16.81,5.66-13c1.73-3.96.53-9.29-3.83-9.29v-.62s13.25,0,13.25,0Z"/>
  <path d="M72.34,63.88v.62h-15.78v-.62c3.35-.13,4.44-1.63,4.44-4.3v-22.46c0-2.67-1.09-4.17-4.44-4.3v-.62h15.78v.62c-3.35.13-4.44,1.63-4.44,4.3v22.46c0,2.67,1.09,4.17,4.44,4.3Z"/>
  <path d="M87.78,63.88v.62h-15.78v-.62c3.35-.13,4.44-1.63,4.44-4.3v-22.46c0-2.67-1.09-4.17-4.44-4.3v-.62h15.78v.62c-3.35.13-4.44,1.63-4.44,4.3v22.46c0,2.67,1.09,4.17,4.44,4.3Z"/>
</svg>