<?xml version="1.0" encoding="UTF-8"?>
<svg id="Layer_2" data-name="Layer 2" xmlns="http://www.w3.org/2000/svg" viewBox="0 0 98.36 64.5">
  <path d="M55.03,31.73v.62h-17.17v-.62h.52c3.48,0,3.98-2.6,2.84-4.65,0,0-5.1-9.11-5.1-9.11l-3.1,4.92c-1.4,2.48-2.19,8.85,1.94,8.85v.62h-13.83v-.62c4.73-1.47,9.27-7.38,10.69-9.45l3.58-5.6s-6.47-11-6.55-11.14c-1.21-2.11-3.2-4.92-5.79-4.92V0h15.92v.62c-2.56,0-3.77,2.26-2.69,4.25.02.03,4.46,7.84,4.46,7.84l2.31-3.7c1.73-2.81,1.4-8.39-1.67-8.39V0h12.43v.62c-3.25.59-7.68,6.06-9.18,8.29l-3.2,5s7.53,12.78,8.14,13.74c1.25,1.96,3.07,4.08,5.47,4.08Z"/>
  <path d="M5.47,27.65c.61-.96,8.14-13.74,8.14-13.74l-3.2-5C8.9,6.69,4.47,1.21,1.22.62v-.62h12.43v.62c-3.07,0-3.4,5.58-1.67,8.39l2.31,3.7s4.45-7.81,4.46-7.84c1.08-2-.13-4.25-2.69-4.25V0h15.92v.62c-2.59,0-4.58,2.8-5.79,4.92-.08.14-6.55,11.14-6.55,11.14l3.58,5.6c1.42,2.07,5.96,7.98,10.69,9.45v.62h-13.83v-.62c4.14,0,3.34-6.36,1.94-8.85l-3.1-4.92s-5.1,9.11-5.1,9.11c-1.14,2.05-.64,4.65,2.84,4.65h.52v.62H0v-.62c2.4,0,4.22-2.12,5.47-4.08Z"/>
  <path d="M64.39,4.95v22.49c0,2.67,1.09,4.18,4.45,4.31v.62h-15.8v-.62c3.35-.13,4.45-1.64,4.45-4.31V4.95c0-2.67-1.09-4.18-4.45-4.31V.02h15.8v.62c-3.35.13-4.45,1.64-4.45,4.31Z"/>
  <path d="M68.84,63.86v.62h-15.8v-.62c3.35-.13,4.45-1.64,4.45-4.31v-22.49c0-2.67-1.09-4.18-4.45-4.31v-.62h15.8v.62c-3.35.13-4.45,1.64-4.45,4.31v22.49c0,2.67,1.09,4.18,4.45,4.31Z"/>
  <path d="M79.13,4.95v22.49c0,2.67,1.09,4.18,4.45,4.31v.62h-15.8v-.62c3.35-.13,4.45-1.64,4.45-4.31V4.95c0-2.67-1.09-4.18-4.45-4.31V.02h15.8v.62c-3.35.13-4.45,1.64-4.45,4.31Z"/>
  <path d="M83.57,63.86v.62h-15.8v-.62c3.35-.13,4.45-1.64,4.45-4.31v-22.49c0-2.67-1.09-4.18-4.45-4.31v-.62h15.8v.62c-3.35.13-4.45,1.64-4.45,4.31v22.49c0,2.67,1.09,4.18,4.45,4.31Z"/>
  <path d="M93.91,4.95v22.49c0,2.67,1.09,4.18,4.45,4.31v.62h-15.8v-.62c3.35-.13,4.45-1.64,4.45-4.31V4.95c0-2.67-1.09-4.18-4.45-4.31V.02h15.8v.62c-3.35.13-4.45,1.64-4.45,4.31Z"/>
  <path d="M98.36,63.86v.62h-15.8v-.62c3.35-.13,4.45-1.64,4.45-4.31v-22.49c0-2.67-1.09-4.18-4.45-4.31v-.62h15.8v.62c-3.35.13-4.45,1.64-4.45,4.31v22.49c0,2.67,1.09,4.18,4.45,4.31Z"/>
  <path d="M49.56,36.85c-.61.96-8.14,13.74-8.14,13.74l3.2,5c1.51,2.22,5.94,7.7,9.18,8.29v.62h-12.43v-.62c3.07,0,3.4-5.58,1.67-8.39l-2.31-3.7s-4.45,7.81-4.46,7.84c-1.08,2,.13,4.25,2.69,4.25v.62h-15.92v-.62c2.59,0,4.58-2.8,5.79-4.92.08-.14,6.55-11.14,6.55-11.14l-3.58-5.6c-1.42-2.07-5.96-7.98-10.69-9.45v-.62h13.83v.62c-4.14,0-3.34,6.36-1.94,8.85l3.1,4.92s5.1-9.11,5.1-9.11c1.14-2.05.64-4.65-2.84-4.65h-.52v-.62h17.17v.62c-2.4,0-4.22,2.12-5.47,4.08Z"/>
  <path d="M0,32.78v-.62s17.17,0,17.17,0v.62s-.52,0-.52,0c-3.48,0-3.98,2.6-2.84,4.65,0,0,5.1,9.11,5.1,9.11l3.1-4.92c1.4-2.48,2.19-8.85-1.94-8.85v-.62s13.83,0,13.83,0v.62c-4.73,1.47-9.27,7.38-10.69,9.45l-3.58,5.6s6.47,11,6.55,11.14c1.21,2.11,3.2,4.92,5.79,4.92v.62s-15.92,0-15.92,0v-.62c2.56,0,3.77-2.26,2.69-4.25-.02-.03-4.46-7.84-4.46-7.84l-2.31,3.7c-1.73,2.81-1.4,8.39,1.67,8.39v.62s-12.43,0-12.43,0v-.62c3.25-.59,7.68-6.06,9.18-8.29l3.2-5s-7.53-12.78-8.14-13.74C4.22,34.9,2.4,32.78,0,32.78Z"/>
</svg>