<svg width="100" height="97" viewBox="0 0 100 97" fill="none" xmlns="http://www.w3.org/2000/svg">
<g clip-path="url(#clip0_923_223)">
<path d="M99.79 46.88V47.8H74.17V46.88C80.87 46.88 81.81 42.04 81.04 39.77C81.04 39.77 81.04 39.76 81.04 39.75L78.06 31.09H60.74L58.14 37.56C56.72 42.12 59.5 46.67 66.62 46.88V47.8H45.48V46.88C50.96 46.52 55.65 39.2 57.94 33.15L66.56 8.71001C68.28 3.90001 66.19 0.93001 60.92 0.93001V0.0100098H78.55L91.36 37.02C92.72 40.66 94.65 46.5 99.78 46.89L99.79 46.88ZM77.41 29.2L69.54 5.89001L61.45 29.2H77.41Z" fill="black"/>
<path d="M45.61 47.93V47.01H71.23V47.93C64.53 47.93 63.59 52.77 64.36 55.04C64.36 55.04 64.36 55.05 64.36 55.06L67.34 63.72H84.66L87.26 57.25C88.68 52.69 85.9 48.14 78.78 47.93V47.01H99.92V47.93C94.44 48.29 89.75 55.61 87.46 61.66L78.84 86.1C77.12 90.91 79.21 93.88 84.48 93.88V94.8H66.85L54.04 57.79C52.68 54.15 50.75 48.31 45.62 47.92L45.61 47.93ZM68 65.61L75.87 88.92L83.96 65.61H68Z" fill="black"/>
<path d="M31.02 54.86V95H19.04C16.67 95 13.63 93.96 11.53 93.96C8.30999 93.96 6.26999 95.07 4.41999 96.26H4.21999C4.30999 91.66 2.10999 83.78 0.00999451 80.73V80.35C12.85 80.35 11.53 93.57 18.27 93.57C20.58 93.57 20.91 90.71 20.91 87.34V54.86C20.91 50.95 19.31 48.74 14.4 48.56V47.65H37.53V48.56C32.62 48.75 31.02 50.95 31.02 54.86ZM51.92 80.72C49.82 83.77 47.62 91.66 47.71 96.25H47.51C45.66 95.06 43.62 93.95 40.4 93.95C38.3 93.95 35.26 94.99 32.89 94.99H31.02V87.33C31.02 90.7 31.35 93.56 33.66 93.56C40.4 93.56 39.08 80.34 51.93 80.34V80.72H51.92Z" fill="black"/>
<path d="M37.53 47.88V48.79H14.4V47.88C19.31 47.69 20.91 45.49 20.91 41.58V9.09004C20.91 5.72004 20.58 2.86004 18.27 2.86004C11.53 2.86004 12.85 16.08 0 16.08V15.7C2.11 12.65 4.31 4.77004 4.22 0.170044H4.42C6.27 1.36004 8.3 2.47004 11.53 2.47004C13.63 2.47004 16.67 1.43004 19.04 1.43004H31.02V41.57C31.02 45.48 32.62 47.69 37.53 47.87V47.88ZM51.92 16.09C39.07 16.09 40.4 2.87004 33.65 2.87004C31.34 2.87004 31.01 5.73004 31.01 9.10004V1.43004H32.88C35.25 1.43004 38.29 2.47004 40.39 2.47004C43.61 2.47004 45.65 1.36004 47.5 0.170044H47.7C47.61 4.77004 49.81 12.65 51.91 15.7V16.08L51.92 16.09Z" fill="black"/>
</g>
<defs>
<clipPath id="clip0_923_223">
<rect width="99.92" height="96.26" fill="white"/>
</clipPath>
</defs>
</svg>
