<svg width="127" height="97" viewBox="0 0 127 97" fill="none" xmlns="http://www.w3.org/2000/svg">
<g clip-path="url(#clip0_925_273)">
<path d="M108.64 47.4C115.54 45.52 121.15 40.4799 124.05 33.93C129.04 22.65 125.32 8.42995 111.46 2.29995C103.24 -1.33005 95.32 -0.42005 89.19 3.27995C87.74 2.59995 86.22 2.04995 84.65 1.65995C72.68 -1.32005 59.31 4.76995 55.64 19.4799C52.03 33.9599 60.64 45.47 72.33 48.68C65.43 50.56 59.82 55.6 56.92 62.15C51.93 73.43 55.65 87.6499 69.51 93.7799C77.73 97.4099 85.65 96.4999 91.78 92.7999C93.23 93.4799 94.75 94.0299 96.32 94.4199C108.29 97.3999 121.66 91.3099 125.33 76.5999C128.94 62.1199 120.33 50.61 108.64 47.4ZM90.22 87.0799C87.94 82.2999 87.68 75.1899 89.56 67.6799C89.91 66.2599 90.33 64.88 90.8 63.57C98.33 68.63 102.38 75.3599 99.83 81.1299C98.26 84.6699 94.74 86.6099 90.22 87.0799ZM88.78 50.18C87.49 49.61 86.2 49.1499 84.93 48.7999C87.37 48.1699 89.7 47.15 91.83 45.74C91.95 45.79 92.06 45.85 92.17 45.9C93.46 46.47 94.75 46.93 96.02 47.2799C93.58 47.91 91.25 48.93 89.12 50.34C89 50.29 88.89 50.2299 88.78 50.18ZM90.73 8.99995C93.01 13.78 93.27 20.8899 91.39 28.4C91.04 29.82 90.62 31.1999 90.15 32.5099C82.62 27.4499 78.57 20.7199 81.12 14.95C82.69 11.41 86.21 9.46995 90.73 8.99995ZM107.08 12.1899C118.51 17.24 125.73 26.0199 122.53 33.2599C119.61 39.8599 109.9 40.8999 99.54 37.1899C100.52 35.34 101.32 33.2799 101.89 31.01C104.07 22.27 101.79 14.61 97.08 9.19995C100.26 9.67995 103.67 10.67 107.09 12.18L107.08 12.1899ZM66.13 22.1C69.15 9.97995 76.56 1.35995 84.25 3.26995C85.34 3.53995 86.32 4.01995 87.2 4.63995C83.92 7.10995 81.3 10.43 79.6 14.27C75.56 23.4 77.23 34.45 85.36 41.58C81.93 45.98 77.66 48.2799 73.31 47.1899C65.63 45.27 63.12 34.2099 66.15 22.09L66.13 22.1ZM73.88 83.8899C62.46 78.8399 55.23 70.06 58.43 62.82C61.35 56.22 71.06 55.18 81.42 58.8899C80.44 60.7399 79.64 62.7999 79.07 65.0699C76.89 73.8099 79.17 81.4699 83.88 86.8799C80.7 86.3999 77.29 85.41 73.87 83.8999L73.88 83.8899ZM114.83 73.9899C111.81 86.1099 104.39 94.7299 96.71 92.8199C95.62 92.5499 94.64 92.0699 93.76 91.4499C97.03 88.9799 99.66 85.6599 101.36 81.8199C105.4 72.6899 103.73 61.6399 95.6 54.5099C99.03 50.1099 103.3 47.81 107.65 48.9C115.33 50.82 117.84 61.8799 114.81 73.9999L114.83 73.9899Z" fill="black"/>
<path d="M36.66 93.39C34.35 93.39 34.02 90.53 34.02 87.16V94.82H35.89C38.26 94.82 41.3 93.78 43.4 93.78C46.62 93.78 48.66 94.89 50.51 96.08H50.71C50.62 91.48 52.82 83.6 54.92 80.55V80.17C42.08 80.17 43.4 93.39 36.66 93.39Z" fill="black"/>
<path d="M38.48 48.62H40.52V47.47H38.48C35.17 46.79 34.01 44.71 34.01 41.4V1.26H22.03C19.66 1.26 16.62 2.3 14.52 2.3C11.3 2.3 9.26001 1.19 7.41001 0H7.21001C7.31001 4.6 5.11001 12.48 3.00001 15.53V15.91C15.84 15.91 14.52 2.69 21.26 2.69C23.57 2.69 23.9 5.55 23.9 8.92V41.4C23.9 44.7 22.75 46.78 19.43 47.47H17.39V48.62H19.43C22.74 49.3 23.9 51.38 23.9 54.69V87.17C23.9 90.54 23.57 93.4 21.26 93.4C14.52 93.4 15.84 80.18 2.99001 80.18V80.56C5.10001 83.61 7.30001 91.5 7.21001 96.09H7.41001C9.26001 94.9 11.3 93.79 14.52 93.79C16.62 93.79 19.66 94.83 22.03 94.83H34.01V54.69C34.01 51.39 35.16 49.31 38.48 48.62Z" fill="black"/>
<path d="M50.71 0H50.51C48.66 1.19 46.62 2.3 43.4 2.3C41.3 2.3 38.26 1.26 35.89 1.26H34.02V8.92C34.02 5.55 34.35 2.69 36.66 2.69C43.4 2.69 42.08 15.91 54.93 15.91V15.53C52.82 12.48 50.62 4.59 50.71 0Z" fill="black"/>
</g>
<defs>
<clipPath id="clip0_925_273">
<rect width="126.16" height="96.09" fill="white"/>
</clipPath>
</defs>
</svg>
