<?xml version="1.0" encoding="UTF-8"?>
<svg id="Layer_2" data-name="Layer 2" xmlns="http://www.w3.org/2000/svg" viewBox="0 0 69.09 64.75">
  <path d="M55.23,31.85v.63h-17.23v-.63h.52c3.49,0,3.99-2.61,2.85-4.67,0,0-5.12-9.15-5.12-9.15l-3.11,4.93c-1.4,2.49-2.2,8.88,1.95,8.88v.63h-13.88v-.63c4.75-1.48,9.31-7.41,10.73-9.49l3.59-5.62s-6.5-11.04-6.58-11.18c-1.22-2.12-3.21-4.94-5.81-4.94V0h15.98v.63c-2.57,0-3.78,2.27-2.7,4.27.02.03,4.48,7.87,4.48,7.87l2.32-3.71c1.74-2.82,1.4-8.42-1.68-8.42V0h12.47v.63c-3.26.59-7.71,6.09-9.22,8.32l-3.21,5.02s7.55,12.83,8.17,13.79c1.25,1.97,3.08,4.09,5.49,4.09Z"/>
  <path d="M5.49,27.76c.61-.97,8.17-13.79,8.17-13.79l-3.21-5.02C8.93,6.71,4.48,1.22,1.22.63v-.63h12.47v.63c-3.08,0-3.42,5.6-1.68,8.42l2.32,3.71s4.46-7.83,4.48-7.87c1.08-2-.13-4.27-2.7-4.27V0h15.98v.63c-2.6,0-4.6,2.81-5.81,4.94-.08.14-6.58,11.18-6.58,11.18l3.59,5.62c1.42,2.08,5.98,8.01,10.73,9.49v.63h-13.88v-.63c4.15,0,3.35-6.39,1.95-8.88l-3.11-4.93s-5.12,9.14-5.12,9.15c-1.14,2.06-.65,4.67,2.85,4.67h.52v.63H0v-.63c2.41,0,4.24-2.13,5.49-4.09Z"/>
  <path d="M64.63,4.97v22.57c0,2.68,1.1,4.19,4.46,4.32v.63h-15.86v-.63c3.37-.13,4.46-1.64,4.46-4.32V4.97c0-2.68-1.1-4.19-4.46-4.32V.02h15.86v.63c-3.37.13-4.46,1.64-4.46,4.32Z"/>
  <path d="M69.09,64.1v.63h-15.86v-.63c3.37-.13,4.46-1.64,4.46-4.32v-22.57c0-2.68-1.1-4.19-4.46-4.32v-.63h15.86v.63c-3.37.13-4.46,1.64-4.46,4.32v22.57c0,2.68,1.1,4.19,4.46,4.32Z"/>
  <path d="M49.74,36.99c-.61.97-8.17,13.79-8.17,13.79l3.21,5.02c1.51,2.23,5.96,7.73,9.22,8.32v.63h-12.47v-.63c3.08,0,3.42-5.6,1.68-8.42l-2.32-3.71s-4.46,7.83-4.48,7.87c-1.08,2,.13,4.27,2.7,4.27v.63h-15.98v-.63c2.6,0,4.6-2.81,5.81-4.94.08-.14,6.58-11.18,6.58-11.18l-3.59-5.62c-1.42-2.08-5.98-8.01-10.73-9.49v-.63h13.88v.63c-4.15,0-3.35,6.39-1.95,8.88l3.11,4.93s5.12-9.14,5.12-9.15c1.14-2.06.65-4.67-2.85-4.67h-.52v-.63h17.23v.63c-2.41,0-4.24,2.13-5.49,4.09Z"/>
  <path d="M0,32.9v-.63s17.23,0,17.23,0v.63s-.52,0-.52,0c-3.49,0-3.99,2.61-2.85,4.67,0,0,5.12,9.15,5.12,9.15l3.11-4.93c1.4-2.49,2.2-8.88-1.95-8.88v-.63s13.88,0,13.88,0v.63c-4.75,1.48-9.31,7.41-10.73,9.49l-3.59,5.62s6.5,11.04,6.58,11.18c1.22,2.12,3.21,4.94,5.81,4.94v.63s-15.98,0-15.98,0v-.63c2.57,0,3.78-2.27,2.7-4.27-.02-.03-4.48-7.87-4.48-7.87l-2.32,3.71c-1.74,2.82-1.4,8.42,1.68,8.42v.63s-12.47,0-12.47,0v-.63c3.26-.59,7.71-6.09,9.22-8.32l3.21-5.02s-7.55-12.83-8.17-13.79C4.24,35.03,2.41,32.9,0,32.9Z"/>
</svg>