<?xml version="1.0" encoding="UTF-8"?>
<svg id="Layer_2" data-name="Layer 2" xmlns="http://www.w3.org/2000/svg" viewBox="0 0 68.87 64.54">
  <path d="M11.36,4.95v22.5c0,2.67,1.1,4.18,4.45,4.31v.63H0v-.63c3.35-.13,4.45-1.64,4.45-4.31V4.95C4.45,2.28,3.35.77,0,.64V.02h15.81v.62c-3.35.13-4.45,1.64-4.45,4.31Z"/>
  <path d="M68.87,31.75v.62h-17.18v-.62h.52c3.48,0,3.98-2.6,2.84-4.65,0,0-5.11-9.12-5.11-9.12l-3.1,4.92c-1.4,2.48-2.2,8.85,1.94,8.85v.62h-13.84v-.62c4.73-1.47,9.28-7.38,10.7-9.46l3.58-5.6s-6.48-11-6.55-11.14c-1.21-2.11-3.2-4.92-5.79-4.92V0h15.93v.62c-2.56,0-3.77,2.26-2.69,4.26.02.03,4.46,7.84,4.46,7.84l2.31-3.7c1.73-2.81,1.4-8.4-1.67-8.4V0h12.43v.62c-3.25.59-7.68,6.07-9.19,8.29l-3.2,5.01s7.53,12.79,8.14,13.75c1.25,1.96,3.07,4.08,5.47,4.08Z"/>
  <path d="M19.29,27.67c.61-.96,8.14-13.75,8.14-13.75l-3.2-5.01c-1.51-2.22-5.94-7.7-9.19-8.29v-.62h12.43v.62c-3.07,0-3.41,5.58-1.67,8.4l2.31,3.7s4.45-7.81,4.46-7.84c1.08-2-.13-4.26-2.69-4.26V0h15.93v.62c-2.59,0-4.58,2.81-5.79,4.92-.08.14-6.55,11.14-6.55,11.14l3.58,5.6c1.42,2.07,5.96,7.98,10.7,9.46v.62h-13.84v-.62c4.14,0,3.34-6.37,1.94-8.85l-3.1-4.92s-5.1,9.11-5.11,9.12c-1.14,2.05-.64,4.65,2.84,4.65h.52v.62H13.82v-.62c2.4,0,4.22-2.12,5.47-4.08Z"/>
  <path d="M15.81,63.9v.62H0v-.62c3.35-.13,4.45-1.64,4.45-4.31v-22.5c0-2.67-1.1-4.18-4.45-4.31v-.63h15.81v.63c-3.35.13-4.45,1.64-4.45,4.31v22.5c0,2.67,1.1,4.18,4.45,4.31Z"/>
  <path d="M63.4,36.87c-.61.96-8.14,13.75-8.14,13.75l3.2,5.01c1.51,2.22,5.94,7.7,9.19,8.29v.62h-12.43v-.62c3.07,0,3.41-5.58,1.67-8.4l-2.31-3.7s-4.45,7.81-4.46,7.84c-1.08,2,.13,4.26,2.69,4.26v.62h-15.93v-.62c2.59,0,4.58-2.81,5.79-4.92.08-.14,6.55-11.14,6.55-11.14l-3.58-5.6c-1.42-2.07-5.96-7.98-10.7-9.46v-.62h13.84v.62c-4.14,0-3.34,6.37-1.94,8.85l3.1,4.92s5.1-9.11,5.11-9.12c1.14-2.05.64-4.65-2.84-4.65h-.52v-.62h17.18v.62c-2.4,0-4.22,2.12-5.47,4.08Z"/>
  <path d="M13.82,32.79v-.62s17.18,0,17.18,0v.62s-.52,0-.52,0c-3.48,0-3.98,2.6-2.84,4.65,0,0,5.11,9.12,5.11,9.12l3.1-4.92c1.4-2.48,2.2-8.85-1.94-8.85v-.62s13.84,0,13.84,0v.62c-4.73,1.47-9.28,7.38-10.7,9.46l-3.58,5.6s6.48,11,6.55,11.14c1.21,2.11,3.2,4.92,5.79,4.92v.62s-15.93,0-15.93,0v-.62c2.56,0,3.77-2.26,2.69-4.26-.02-.03-4.46-7.84-4.46-7.84l-2.31,3.7c-1.73,2.81-1.4,8.4,1.67,8.4v.62s-12.43,0-12.43,0v-.62c3.25-.59,7.68-6.07,9.19-8.29l3.2-5.01s-7.53-12.79-8.14-13.75c-1.25-1.96-3.07-4.08-5.47-4.08Z"/>
</svg>