<?xml version="1.0" encoding="UTF-8"?>
<svg id="Layer_2" data-name="Layer 2" xmlns="http://www.w3.org/2000/svg" viewBox="0 0 686.85 167.98">
  <defs>
    <style>
      .cls-1 {
        fill: #000210;
      }
    </style>
  </defs>
  <path class="cls-1" d="M88.3,37.65l-.06-.31h-2.08l-.06.31c-1.69,9.24-6.17,15.67-12.3,17.64l-.26.08v1.85l.26.08c6.15,1.98,10.64,8.44,12.31,17.72l.06.31h2.05l.06-.31c1.68-9.31,6.18-15.77,12.35-17.73l.26-.08v-1.82l-.26-.08c-6.15-1.96-10.64-8.39-12.33-17.65Z"/>
  <path class="cls-1" d="M97.61,85.16c-10.04,9.53-21.38,14.37-33.71,14.37-16.71,0-27.28-11.91-33.21-21.91-6.91-11.65-11.2-27.28-11.2-40.79,0-8.5,2.59-16.01,7.69-22.31,1.05-1.29,2.21-2.47,3.45-3.5,7.35-6.08,18.62-7.63,27.42-3.79,1.95.85,4,1.97,6.47,3.52,4.42,2.78,7.93,5.53,11.03,8.66,3.46,3.49,6.83,7.5,10.6,12.61l.11.15h1.99l8.11-27.91-.38-.09C84.22,1.24,72.35-.25,60.7-.25,44.23-.25,30.1,4.04,19.84,12.16,7.04,22.27,0,37.31,0,54.51s5.26,29.95,15.65,40.33c10.38,10.38,23.54,15.65,39.11,15.65,19.44,0,34.51-7.85,44.79-23.32l.16-.24-1.82-2.03-.28.27Z"/>
  <path class="cls-1" d="M142.52,31.98c-10.79,0-19.83,3.95-26.85,11.74-7.02,7.78-10.58,16.98-10.58,27.36s3.69,20.09,10.96,27.67c7.28,7.58,16.23,11.43,26.62,11.43s20.08-3.97,27.31-11.81c7.22-7.83,10.88-17.06,10.88-27.44,0-10.98-3.84-20.32-11.43-27.76-7.58-7.43-16.64-11.19-26.92-11.19ZM159.33,100.97c-3,3.1-6.92,4.67-11.65,4.67-3.6,0-6.74-1.99-9.33-5.91-2.66-4.01-5.73-10.72-9.15-19.98-4.82-11.95-7.26-21.1-7.26-27.2,0-4.44,1.45-8.26,4.3-11.36,2.85-3.09,6.69-4.66,11.42-4.66,3.59,0,6.73,1.99,9.33,5.91,2.65,4.01,5.78,10.58,9.31,19.53,5.02,11.75,7.56,21,7.56,27.49,0,4.53-1.52,8.41-4.53,11.51Z"/>
  <path class="cls-1" d="M221.65,62.99c-2.8-1.1-4.74-1.89-5.75-2.35-1.01-.46-2.87-1.27-5.55-2.43-2.64-1.14-4.59-2.15-5.78-3-1.21-.86-2.66-1.9-4.32-3.11-1.62-1.18-2.79-2.39-3.46-3.6-.67-1.2-1.02-2.44-1.02-3.69,0-2.34.88-4.23,2.68-5.79,1.8-1.55,4.09-2.34,6.82-2.34,4.74,0,10.07,2.62,15.85,7.8.99.89,1.9,1.78,2.71,2.64.79.84,1.48,1.61,2.04,2.26.59.71,1.43,1.75,2.42,3.03,1.07,1.38,2.07,2.58,2.98,3.59l.11.12h1.97l5.95-21.62-.4-.08c-7.48-1.42-15.27-2.13-23.15-2.13-18.79,0-28.32,7.79-28.32,23.15,0,3.58.52,6.71,1.54,9.32,1.03,2.63,2.75,5,5.12,7.06,2.34,2.04,4.79,3.74,7.28,5.06,2.47,1.31,5.88,2.9,10.13,4.72.51.2,1.27.51,2.28.91,3.11,1.2,5.4,2.15,6.81,2.8,1.4.65,3.23,1.64,5.43,2.94,2.16,1.28,3.71,2.64,4.58,4.05.87,1.4,1.31,2.99,1.31,4.74,0,2.7-.92,4.8-2.74,6.24-1.85,1.46-4.27,2.2-7.21,2.2-5.56,0-12.22-3.04-19.8-9.02-1.72-1.52-3.63-3.37-5.67-5.52-2.05-2.15-3.23-3.48-3.52-3.96l-.11-.18h-1.86l-6.11,21.63.41.07c1.83.3,5.61.7,11.57,1.22,5.86.5,10.68.76,14.31.76,20.71,0,31.2-7.89,31.2-23.46,0-6.45-1.85-11.5-5.51-15-3.62-3.46-8.74-6.5-15.23-9.04Z"/>
  <path class="cls-1" d="M372.06,65.92c0-12.37-1.84-21.16-5.46-26.11-3.65-4.99-9.3-7.52-16.78-7.52-9.32,0-18.4,5.71-27,16.97-1.45-6.03-3.84-10.38-7.09-12.94-3.39-2.67-7.97-4.03-13.6-4.03-5.12,0-10.1,1.74-14.8,5.16-4.38,3.19-8.19,7.04-11.33,11.44l-1.17-16.36-28.66,4.83v2.19l9.42,6.38v52.93l-9.42,7.59v2.23h39.47v-2.23l-9.57-7.59v-44.06c4.05-6.87,9.14-10.36,15.11-10.36,4.79,0,8.13,1.6,9.92,4.75,1.83,3.22,2.76,8.85,2.76,16.75v32.93l-9.42,7.59v2.23h39.47v-2.23l-9.57-7.59v-32.92c0-5.06-.25-9.12-.74-12.05,4.64-6.26,9.71-9.44,15.09-9.44,4.89,0,8.28,1.6,10.08,4.75,1.83,3.22,2.76,8.86,2.76,16.75v32.92l-9.72,7.59v2.23h39.63v-2.23l-9.42-7.59v-32.93Z"/>
  <polygon class="cls-1" points="416.57 32.53 386.66 37.2 386.66 39.39 396.07 45.92 396.07 98.85 386.66 106.44 386.66 108.67 425.98 108.67 425.98 106.44 416.57 98.85 416.57 32.53"/>
  <path class="cls-1" d="M404.65,24.23c2.92,0,5.51-1.08,7.7-3.22,2.19-2.14,3.3-4.71,3.3-7.63s-1.11-5.65-3.3-7.79c-2.19-2.14-4.78-3.22-7.7-3.22s-5.51,1.08-7.7,3.22c-2.19,2.14-3.3,4.76-3.3,7.79s1.11,5.5,3.3,7.63c2.19,2.14,4.78,3.22,7.7,3.22Z"/>
  <path class="cls-1" d="M495.3,91.34c-5.87,6.77-13.18,10.2-21.74,10.2-9,0-16.24-6.72-21.52-19.97-4.42-10.43-6.65-19.32-6.65-26.43,0-4.76,1.26-9.03,3.73-12.7,2.45-3.62,6.68-5.45,12.6-5.45,4.54,0,9.87,2.78,15.83,8.24,1.31,1.31,4.42,5.03,9.24,11.06l.11.14h2.14l5.8-21.17-.39-.08c-10.1-2.02-18.2-3.04-24.07-3.04-4.67,0-9.49.82-14.32,2.45-4.82,1.62-9.42,3.96-13.69,6.96-4.28,3.01-7.84,7.14-10.59,12.28-2.75,5.14-4.14,10.95-4.14,17.26,0,11.09,3.53,20.45,10.5,27.82,6.97,7.38,15.88,11.13,26.47,11.13,14.24,0,25.43-5.62,33.26-16.71l.21-.29-2.54-1.95-.23.27Z"/>
  <path class="cls-1" d="M567.39,37.83l-.06-.31h-2.07l-.06.31c-1.67,9.15-6.11,15.52-12.18,17.47l-.26.08v1.83l.26.08c6.09,1.96,10.53,8.36,12.19,17.55l.06.31h2.04l.06-.31c1.66-9.22,6.12-15.62,12.23-17.56l.26-.08v-1.81l-.26-.08c-6.09-1.94-10.54-8.31-12.21-17.48Z"/>
  <path class="cls-1" d="M511.16-.25l-1.29,4.98.25.14c1.9,1.11,3.67,2.47,5.27,4.05,5.09,5.03,8.03,12.15,8.07,19.53l.03,5.87v91.29c0,6.46-4.67,9.53-8.58,10.97-.25.09-.5.18-.76.26l-.26.08v2.51l.26.08c9.36,3.01,16.2,12.83,18.74,26.94l.06.31h2.79l.06-.31c2.55-14.14,9.4-23.97,18.8-26.96l.26-.08v-2.47l-.36-.12c-5.81-1.89-9.01-5.84-9.01-11.12V3.61h20.83c1.89,1.54,7.37,7.95,12.68,14.14,5.68,6.64,11.05,12.9,12.9,14.34l.1.08h2.24V-.17l-82.76-.08h-.29Z"/>
  <path class="cls-1" d="M615.71,21.82c2.92,0,5.52-1.08,7.7-3.22,2.19-2.14,3.3-4.71,3.3-7.63s-1.11-5.65-3.3-7.79c-2.19-2.14-4.78-3.22-7.7-3.22s-5.51,1.08-7.7,3.22c-2.19,2.14-3.3,4.76-3.3,7.79s1.11,5.5,3.3,7.63c2.19,2.14,4.78,3.22,7.7,3.22Z"/>
  <polygon class="cls-1" points="627.62 30.12 597.72 34.79 597.72 36.98 607.13 43.51 607.13 96.44 597.72 104.03 597.72 106.25 637.04 106.25 637.04 104.03 627.62 96.44 627.62 30.12"/>
  <path class="cls-1" d="M686.35,99.76c-4.09,1.5-7.32,2.26-9.59,2.26-7.51,0-11.17-4.99-11.17-15.27v-52.17h19.74v-3.48h-19.74V10.29h-2.07l-15.51,19.31-10.96,1.54v3.43h8.05v46.7c0,8.35,1.69,14.86,5.01,19.36,3.35,4.53,9.66,6.83,18.75,6.83,7,0,12.98-1.03,17.76-3.07l.23-.1v-4.73l-.5.18Z"/>
</svg>