<?xml version="1.0" encoding="UTF-8"?>
<svg id="Layer_2" data-name="Layer 2" xmlns="http://www.w3.org/2000/svg" viewBox="0 0 101.82 93.05">
  <defs>
    <style>
      .cls-1 {
        fill: #000210;
      }
    </style>
  </defs>
  <path class="cls-1" d="M47.74,21.26l-.08-.41h-1.61l-.08.41c-.88,4.82-3.2,8.17-6.36,9.19l-.35.11v1.42l.35.11c3.17,1.02,5.5,4.39,6.37,9.23l.07.41h1.6l.07-.41c.88-4.86,3.21-8.22,6.39-9.24l.35-.11v-1.41l-.35-.11c-3.17-1.01-5.5-4.36-6.38-9.19Z"/>
  <path class="cls-1" d="M87.36,21.26l-.08-.41h-1.61l-.08.41c-.88,4.82-3.2,8.17-6.36,9.19l-.35.11v1.42l.35.11c3.17,1.02,5.5,4.39,6.37,9.23l.07.41h1.6l.07-.41c.88-4.86,3.21-8.22,6.39-9.24l.35-.11v-1.41l-.35-.11c-3.17-1.01-5.5-4.36-6.38-9.19Z"/>
  <path class="cls-1" d="M52.21,45.69c-5.3,5.04-11.29,7.59-17.79,7.59-8.78,0-14.35-6.28-17.47-11.55-3.66-6.18-5.94-14.46-5.94-21.62,0-4.47,1.36-8.41,4.04-11.72.55-.68,1.15-1.29,1.8-1.83,3.84-3.17,9.74-3.99,14.33-1.98,1.03.45,2.11,1.04,3.41,1.86,2.34,1.47,4.2,2.93,5.84,4.58,1.84,1.85,3.63,3.98,5.63,6.7l.15.2h1.44l4.48-15.42-.5-.13c-6.3-1.58-12.67-2.37-18.91-2.37-8.86,0-16.47,2.31-22,6.69C3.8,12.15,0,20.26,0,29.54s2.84,16.14,8.44,21.75c5.6,5.6,12.7,8.44,21.09,8.44,10.49,0,18.62-4.23,24.17-12.59l.21-.32-1.33-1.48-.37.35Z"/>
  <path class="cls-1" d="M56.52,2.4l-.81,3.13.33.19c1,.58,1.94,1.3,2.78,2.14,2.69,2.66,4.24,6.42,4.26,10.32l.02,52.38c0,3.31-2.41,4.89-4.43,5.63-.13.05-.27.09-.4.14l-.35.11v1.79l.35.11c4.94,1.59,8.55,6.8,9.9,14.3l.07.41h2l.07-.41c1.36-7.51,4.98-12.73,9.93-14.31l.35-.11v-1.4l-.06-.38-.35-.11c-3-.97-4.65-3-4.65-5.71V5.07h10.82c1.06.92,3.94,4.27,6.72,7.52,3.07,3.59,5.98,6.98,7,7.77l.13.11h1.61V2.44l-45.3-.04Z"/>
</svg>