<?xml version="1.0" encoding="UTF-8"?>
<svg id="Layer_2" data-name="Layer 2" xmlns="http://www.w3.org/2000/svg" viewBox="0 0 316.46 297.09">
  <defs>
    <style>
      .cls-1 {
        fill: #fff;
      }
    </style>
  </defs>
  <path class="cls-1" d="M150.47,65.29h-1.68c-3.01,15.96-10.84,27.14-21.54,30.76v1.52c10.74,3.64,18.58,14.87,21.57,30.91h1.62c3-16.08,10.86-27.31,21.63-30.93v-1.47c-10.74-3.6-18.59-14.79-21.61-30.79Z"/>
  <path class="cls-1" d="M269.39,65.29h-1.68c-3.01,15.96-10.84,27.14-21.54,30.76v1.52c10.74,3.64,18.58,14.87,21.57,30.91h1.63c3-16.08,10.86-27.31,21.63-30.93v-1.47c-10.74-3.6-18.59-14.79-21.61-30.79Z"/>
  <path class="cls-1" d="M109.48,172.46c-16.19,0-39.44-6.65-58.22-38.31-12.01-20.24-19.46-47.4-19.46-70.87,0-14.92,4.54-28.1,13.5-39.17,1.85-2.29,3.91-4.37,6.11-6.19,12.99-10.73,32.91-13.49,48.45-6.69,3.4,1.49,6.99,3.44,11.3,6.14,7.69,4.83,13.8,9.62,19.22,15.09,5.96,6.01,11.75,12.9,18.22,21.66h2l13.4-46.13C143.97,3.01,123.78.5,103.96.5c-28.13,0-52.24,7.31-69.71,21.13C12.49,38.84.5,64.45.5,93.72s8.96,51.02,26.63,68.69,40.08,26.63,66.59,26.63c32.96,0,58.54-13.24,76.03-39.36l-1.76-1.96c-17.42,16.41-37.11,24.73-58.52,24.73Z"/>
  <path class="cls-1" d="M180.75,22.23c9.07,8.97,14.31,21.65,14.38,34.8l.05,10.23v158.86c0,9.42-5.43,16.4-15.69,20.17-.34.12-.68.24-1.02.36v2.69c16.44,5.48,28.44,22.66,32.97,47.25h2.92c4.55-24.65,16.58-41.85,33.07-47.29v-2.63c-10.52-3.47-16.32-10.71-16.32-20.39V12.65h37.8l.13.11c3.21,2.49,12.53,13.38,22.41,24.91,9.29,10.84,18.89,22.05,22.15,24.69h2.35V8.37l-142.46-.14-1.8,6.97c3.26,1.94,6.31,4.31,9.07,7.03Z"/>
</svg>