<?xml version="1.0" encoding="UTF-8"?>
<svg id="Layer_2" data-name="Layer 2" xmlns="http://www.w3.org/2000/svg" viewBox="0 0 100.32 92.55">
  <defs>
    <style>
      .cls-1 {
        fill: #fff;
      }
    </style>
  </defs>
  <path class="cls-1" d="M47.25,21.05l-.04-.21h-1.2l-.04.21c-.9,4.91-3.28,8.33-6.53,9.38l-.17.06v1.06l.17.06c3.26,1.05,5.65,4.48,6.54,9.42l.04.21h1.18l.04-.21c.89-4.95,3.28-8.39,6.56-9.43l.17-.06v-1.05l-.17-.06c-3.26-1.04-5.65-4.46-6.55-9.39Z"/>
  <path class="cls-1" d="M85.86,21.05l-.04-.21h-1.2l-.04.21c-.9,4.92-3.28,8.33-6.53,9.38l-.17.06v1.06l.17.06c3.26,1.05,5.65,4.48,6.54,9.42l.04.21h1.18l.04-.21c.89-4.95,3.28-8.39,6.56-9.43l.17-.06v-1.05l-.17-.06c-3.26-1.04-5.65-4.46-6.55-9.39Z"/>
  <path class="cls-1" d="M52.13,45.62c-5.35,5.08-11.39,7.66-17.97,7.66-8.9,0-14.53-6.35-17.69-11.67-3.69-6.21-5.97-14.55-5.97-21.75,0-4.53,1.38-8.53,4.09-11.88.56-.69,1.18-1.32,1.83-1.86,3.91-3.23,9.91-4.06,14.59-2.01,1.03.45,2.13,1.05,3.45,1.88,2.36,1.48,4.23,2.95,5.88,4.62,1.85,1.86,3.64,4,5.65,6.73l.07.1h1.13l4.36-14.99-.25-.06c-6.28-1.57-12.63-2.37-18.85-2.37-8.81,0-16.36,2.29-21.85,6.63C3.77,12.05,0,20.09,0,29.29s2.82,16.01,8.37,21.57c5.55,5.55,12.59,8.37,20.92,8.37,10.4,0,18.46-4.2,23.96-12.47l.11-.16-1.03-1.15-.19.18Z"/>
  <path class="cls-1" d="M54.91,5.25c1.02.6,1.97,1.33,2.83,2.18,2.73,2.7,4.31,6.53,4.33,10.5l.02,52.39c0,3.46-2.5,5.1-4.59,5.87-.14.05-.27.1-.41.14l-.17.06v1.42l.17.06c5.03,1.62,8.7,6.9,10.07,14.49l.04.21h1.58l.04-.21c1.37-7.61,5.05-12.89,10.1-14.5l.17-.06-.03-1.41-.2-.06c-3.11-1.01-4.83-3.12-4.83-5.95V4.57h11.17l.07.06c1.07.93,3.94,4.28,6.72,7.52l.04.05c3.06,3.57,5.95,6.94,6.95,7.72l.07.05h1.27V2.44l-44.86-.04-.71,2.76.16.1Z"/>
</svg>