<?xml version="1.0" encoding="UTF-8"?>
<svg id="Layer_2" data-name="Layer 2" xmlns="http://www.w3.org/2000/svg" viewBox="0 0 685.35 166.66">
  <defs>
    <style>
      .cls-1 {
        fill: none;
      }

      .cls-2 {
        fill: #fff;
      }
    </style>
  </defs>
  <path class="cls-1" d="M146.24,42.69c-2.6-3.92-5.74-5.91-9.33-5.91-4.73,0-8.57,1.57-11.42,4.66-2.86,3.1-4.31,6.93-4.31,11.36,0,6.1,2.44,15.25,7.26,27.2,3.42,9.25,6.5,15.97,9.15,19.98,2.59,3.92,5.73,5.91,9.33,5.91,4.73,0,8.65-1.57,11.65-4.67,3-3.1,4.53-6.98,4.53-11.51,0-6.5-2.54-15.75-7.56-27.49-3.52-8.95-6.65-15.52-9.31-19.53Z"/>
  <path class="cls-2" d="M86.87,38.34h-.83c-1.76,9.23-6.29,15.7-12.49,17.83v.76c6.22,2.14,10.75,8.64,12.5,17.91h.8c1.75-9.29,6.3-15.8,12.54-17.92v-.73c-6.22-2.12-10.76-8.59-12.52-17.84Z"/>
  <path class="cls-2" d="M63.15,100.53c-9.42,0-22.94-3.86-33.86-22.27-6.97-11.76-11.31-27.53-11.31-41.17,0-8.68,2.64-16.35,7.85-22.78,1.08-1.33,2.27-2.54,3.56-3.6,7.56-6.25,19.16-7.85,28.2-3.9,1.98.86,4.06,2,6.57,3.57,4.47,2.81,8.02,5.59,11.17,8.77,3.45,3.48,6.81,7.47,10.55,12.54h1.05l7.73-26.62C83.1,2.2,71.42.75,59.95.75c-16.3,0-30.27,4.23-40.4,12.24C6.95,22.96,0,37.8,0,54.76c0,16.17,5.19,29.56,15.43,39.8,10.24,10.24,23.22,15.43,38.58,15.43,19.07,0,33.88-7.65,44.01-22.75l-.92-1.02c-10.11,9.5-21.53,14.31-33.95,14.31Z"/>
  <path class="cls-2" d="M141.77,32.98c-10.57,0-19.42,3.87-26.3,11.49-6.89,7.64-10.38,16.67-10.38,26.86s3.62,19.72,10.75,27.15c7.13,7.43,15.9,11.2,26.08,11.2,10.67,0,19.67-3.89,26.76-11.57,7.09-7.69,10.68-16.75,10.68-26.93,0-10.78-3.77-19.94-11.2-27.22-7.44-7.28-16.31-10.98-26.39-10.98ZM159.12,101.74c-3.15,3.25-7.25,4.9-12.19,4.9-3.87,0-7.21-2.1-9.96-6.24-2.69-4.06-5.79-10.83-9.23-20.12-4.85-12.02-7.31-21.27-7.31-27.47,0-4.63,1.52-8.63,4.5-11.87,2.99-3.25,7.02-4.9,11.97-4.9,3.86,0,7.21,2.1,9.96,6.24,2.68,4.05,5.84,10.67,9.38,19.66,5.05,11.83,7.62,21.18,7.62,27.78,0,4.73-1.59,8.78-4.74,12.03Z"/>
  <path class="cls-2" d="M220.63,63.94c-2.82-1.11-4.77-1.9-5.79-2.36-1.01-.46-2.86-1.26-5.54-2.43-2.69-1.16-4.68-2.2-5.91-3.07-1.22-.86-2.66-1.9-4.33-3.12-1.71-1.25-2.95-2.54-3.67-3.84-.74-1.31-1.11-2.68-1.11-4.06,0-2.53.99-4.67,2.94-6.36,1.94-1.67,4.39-2.52,7.31-2.52,4.93,0,10.43,2.69,16.35,7.99,1.01.91,1.93,1.81,2.76,2.68.8.85,1.49,1.62,2.06,2.29.59.7,1.43,1.75,2.44,3.05,1.02,1.31,1.97,2.46,2.83,3.42h1.07l5.59-20.29c-7.32-1.36-14.92-2.04-22.61-2.04-18.55,0-27.57,7.33-27.57,22.4,0,3.48.5,6.53,1.49,9.05.98,2.51,2.63,4.79,4.91,6.76,2.3,2,4.7,3.67,7.14,4.96,2.45,1.3,5.84,2.88,10.07,4.69.5.2,1.26.5,2.27.91,3.12,1.21,5.42,2.15,6.85,2.82,1.42.66,3.27,1.66,5.5,2.98,2.27,1.34,3.9,2.79,4.84,4.3.95,1.52,1.42,3.25,1.42,5.13,0,2.94-1.02,5.24-3.03,6.82-1.98,1.57-4.57,2.36-7.67,2.36-5.73,0-12.55-3.09-20.28-9.19-1.75-1.54-3.67-3.42-5.73-5.58-1.91-2-3.05-3.28-3.5-3.91h-.88l-5.73,20.28c1.94.29,5.58.67,11.1,1.15,5.84.5,10.63.76,14.24.76,20.21,0,30.45-7.64,30.45-22.71,0-6.24-1.78-11.1-5.28-14.46-3.54-3.39-8.58-6.38-14.99-8.88Z"/>
  <path class="cls-2" d="M370.56,66.17c0-12.21-1.79-20.85-5.32-25.67-3.5-4.79-8.95-7.21-16.17-7.21-9.25,0-18.29,5.83-26.88,17.31l-.49.65-.18-.8c-1.39-6.26-3.75-10.74-7-13.3-3.26-2.57-7.68-3.87-13.13-3.87-4.96,0-9.79,1.69-14.36,5.02-4.6,3.35-8.55,7.43-11.76,12.13l-.61.89-1.26-17.67-27.22,4.59v1.16l9.42,6.38v53.68l-9.42,7.59v1.12h37.97v-1.11l-9.57-7.59v-44.63l.05-.09c4.2-7.18,9.52-10.82,15.81-10.82,5.08,0,8.64,1.72,10.58,5.12,1.9,3.33,2.86,9.09,2.86,17.12v33.29l-9.42,7.59v1.12h37.98v-1.11l-9.57-7.59v-33.29c0-5.11-.25-9.18-.75-12.09l-.03-.16.09-.13c4.81-6.55,10.12-9.87,15.79-9.87,5.18,0,8.79,1.72,10.73,5.12,1.9,3.34,2.86,9.1,2.86,17.12v33.29l-9.72,7.59v1.11h38.13v-1.12l-9.42-7.59v-33.29Z"/>
  <polygon class="cls-2" points="415.07 33.65 386.66 38.09 386.66 39.25 396.07 45.78 396.07 99.46 386.66 107.05 386.66 108.17 424.48 108.17 424.48 107.05 415.07 99.46 415.07 33.65"/>
  <path class="cls-2" d="M403.9,23.73c2.72,0,5.14-1.01,7.18-3.01,2.04-1.99,3.08-4.38,3.08-7.1s-1.04-5.25-3.08-7.25c-2.05-1.99-4.46-3.01-7.18-3.01s-5.13,1.01-7.18,3.01c-2.04,1.99-3.08,4.43-3.08,7.25s1.04,5.11,3.08,7.1c2.04,2,4.46,3.01,7.18,3.01Z"/>
  <path class="cls-2" d="M450.6,82.1c-4.45-10.51-6.71-19.5-6.71-26.71,0-4.91,1.3-9.33,3.86-13.12,2.59-3.84,7.04-5.78,13.22-5.78,4.73,0,10.23,2.84,16.35,8.45,1.33,1.33,4.42,5.02,9.19,10.99h1.2l5.44-19.84c-9.87-1.96-17.79-2.95-23.53-2.95-4.59,0-9.33.81-14.08,2.41-4.75,1.6-9.29,3.91-13.5,6.86-4.18,2.94-7.67,6.98-10.36,12.02-2.69,5.04-4.06,10.72-4.06,16.91,0,10.89,3.47,20.07,10.3,27.31,6.83,7.23,15.55,10.89,25.92,10.89,13.85,0,24.76-5.42,32.44-16.1l-1.41-1.08c-5.98,6.76-13.4,10.19-22.07,10.19-9.34,0-16.82-6.88-22.22-20.43Z"/>
  <path class="cls-2" d="M565.96,38.52h-.82c-1.74,9.14-6.23,15.54-12.37,17.66v.75c6.16,2.12,10.65,8.55,12.38,17.74h.79c1.73-9.2,6.24-15.64,12.42-17.75v-.72c-6.16-2.1-10.66-8.51-12.4-17.67Z"/>
  <path class="cls-2" d="M515.15,8.64c5.23,5.17,8.25,12.48,8.29,20.06l.03,5.88v91.3c0,5.46-3.14,9.49-9.08,11.67-.17.06-.35.13-.53.19v1.42c9.43,3.17,16.32,13.03,18.93,27.13h1.53c2.62-14.13,9.53-24,18.99-27.15v-1.38c-6.05-2.02-9.38-6.19-9.38-11.78V3.11h21.84l.1.08c1.85,1.44,7.21,7.7,12.89,14.33,5.31,6.2,10.81,12.61,12.7,14.16h1.23V.83l-81.72-.08-1,3.87c1.86,1.11,3.6,2.46,5.17,4.02Z"/>
  <path class="cls-2" d="M614.96,21.32c2.72,0,5.14-1.01,7.18-3.01,2.04-1.99,3.08-4.38,3.08-7.1s-1.04-5.26-3.08-7.25c-2.04-1.99-4.46-3.01-7.18-3.01s-5.13,1.01-7.18,3.01c-2.04,1.99-3.08,4.43-3.08,7.25s1.04,5.11,3.08,7.1c2.04,2,4.46,3.01,7.18,3.01Z"/>
  <polygon class="cls-2" points="626.12 31.24 597.72 35.68 597.72 36.83 607.13 43.36 607.13 97.04 597.72 104.64 597.72 105.75 635.54 105.75 635.54 104.64 626.12 97.04 626.12 31.24"/>
  <path class="cls-2" d="M664.09,86.99v-52.92h19.74v-1.98h-19.74V11.28h-.96l-15.47,19.26-10.61,1.49v2.03h8.05v47.45c0,8.18,1.64,14.55,4.86,18.91,3.2,4.33,9.3,6.53,18.15,6.53,6.79,0,12.59-.98,17.24-2.91v-3.17c-3.94,1.41-7.08,2.12-9.34,2.12-7.91,0-11.92-5.39-11.92-16.02Z"/>
</svg>