<svg width="150" height="97" viewBox="0 0 150 97" fill="none" xmlns="http://www.w3.org/2000/svg">
<g>
<path d="M31.02 54.69V94.83H19.04C16.67 94.83 13.63 93.79 11.53 93.79C8.31 93.79 6.27 94.9 4.42 96.09H4.22C4.31 91.49 2.11 83.61 0.0100002 80.56V80.18C12.85 80.18 11.53 93.4 18.27 93.4C20.58 93.4 20.91 90.54 20.91 87.17V54.69C20.91 50.78 19.31 48.57 14.4 48.39V47.48H37.53V48.39C32.62 48.58 31.02 50.78 31.02 54.69ZM51.92 80.55C49.82 83.6 47.62 91.49 47.71 96.08H47.51C45.66 94.89 43.62 93.78 40.4 93.78C38.3 93.78 35.26 94.82 32.89 94.82H31.02V87.16C31.02 90.53 31.35 93.39 33.66 93.39C40.4 93.39 39.08 80.17 51.93 80.17V80.55H51.92Z" fill="black"/>
<path d="M37.53 47.71V48.62H14.4V47.71C19.31 47.52 20.91 45.32 20.91 41.41V8.92C20.91 5.55 20.58 2.69 18.27 2.69C11.52 2.7 12.85 15.92 0 15.92V15.54C2.11 12.48 4.31 4.6 4.22 0H4.42C6.27 1.19 8.3 2.3 11.53 2.3C13.63 2.3 16.67 1.26 19.04 1.26H31.02V41.4C31.02 45.31 32.62 47.52 37.53 47.7V47.71ZM51.92 15.92C39.07 15.92 40.4 2.7 33.65 2.7C31.34 2.7 31.01 5.56 31.01 8.93V1.26H32.88C35.25 1.26 38.29 2.3 40.39 2.3C43.61 2.3 45.65 1.19 47.5 0H47.7C47.61 4.6 49.81 12.48 51.91 15.53V15.91L51.92 15.92Z" fill="black"/>
<path d="M97.3 7.13006V39.3901C97.3 43.2201 98.87 45.3801 103.68 45.5701V46.4701H81.01V45.5701C85.82 45.3901 87.39 43.2201 87.39 39.3901V22.3801H69.73V39.3901C69.73 43.2201 71.3 45.3801 76.11 45.5701V46.4701H53.44V45.5701C58.25 45.3901 59.82 43.2201 59.82 39.3901V7.13006C59.82 3.30006 58.25 1.14006 53.44 0.950059V0.0600586H76.11V0.960059C71.3 1.14006 69.73 3.31006 69.73 7.14006V20.7601H87.39V7.13006C87.39 3.30006 85.82 1.14006 81.01 0.950059V0.0600586H103.68V0.960059C98.87 1.14006 97.3 3.31006 97.3 7.14006V7.13006Z" fill="black"/>
<path d="M142.63 43.9101H110.37C106.54 43.9101 104.38 45.4801 104.19 50.2901H103.29V27.6201H104.19C104.37 32.4301 106.54 34.0001 110.37 34.0001H127.38V16.3401H110.37C106.54 16.3401 104.38 17.9101 104.19 22.7201H103.29V0.0600586H104.19C104.37 4.87006 106.54 6.44006 110.37 6.44006H142.63C146.46 6.44006 148.62 4.87006 148.81 0.0600586H149.71V22.7301H148.81C148.63 17.9201 146.46 16.3501 142.63 16.3501H129.01V34.0101H142.63C146.46 34.0101 148.62 32.4401 148.81 27.6301H149.71V50.3001H148.81C148.63 45.4901 146.46 43.9201 142.63 43.9201V43.9101Z" fill="black"/>
<path d="M149.7 95.1001V96.0001H127.03V95.1001C131.84 94.9201 133.41 92.7501 133.41 88.9201V75.3001H115.75V88.9201C115.75 92.7501 117.32 94.9101 122.13 95.1001V96.0001H99.46V95.1001C104.27 94.9201 105.84 92.7501 105.84 88.9201V56.6601C105.84 52.8301 104.27 50.6701 99.46 50.4801V49.5801H122.13V50.4801C117.32 50.6601 115.75 52.8301 115.75 56.6601V73.6701H133.41V56.6601C133.41 52.8301 131.84 50.6701 127.03 50.4801V49.5801H149.7V50.4801C144.89 50.6601 143.32 52.8301 143.32 56.6601V88.9201C143.32 92.7501 144.89 94.9101 149.7 95.1001Z" fill="black"/>
<path d="M54.34 95.99H53.44V73.32H54.34C54.52 78.13 56.69 79.7 60.52 79.7H74.14V62.04H60.52C56.69 62.04 54.53 63.61 54.34 68.42H53.44V45.75H54.34C54.52 50.56 56.69 52.13 60.52 52.13H92.78C96.61 52.13 98.77 50.56 98.96 45.75H99.86V68.42H98.96C98.78 63.61 96.61 62.04 92.78 62.04H75.77V79.7H92.78C96.61 79.7 98.77 78.13 98.96 73.32H99.86V95.99H98.96C98.78 91.18 96.61 89.61 92.78 89.61H60.52C56.69 89.61 54.53 91.18 54.34 95.99Z" fill="black"/>
</g>
</svg>
