<svg width="129" height="97" viewBox="0 0 129 97" fill="none" xmlns="http://www.w3.org/2000/svg">
<g clip-path="url(#clip0_923_244)">
<path d="M31.31 55.22V95.73H19.22C16.83 95.73 13.76 94.68 11.64 94.68C8.39 94.68 6.33 95.8 4.47 97H4.27C4.36 92.36 2.14 84.4 0.02 81.32V80.93C12.98 80.93 11.65 94.27 18.45 94.27C20.78 94.27 21.11 91.3801 21.11 87.98V55.2C21.11 51.25 19.49 49.03 14.54 48.84V47.92H37.89V48.84C32.94 49.03 31.32 51.26 31.32 55.2L31.31 55.22ZM52.41 81.33C50.29 84.41 48.07 92.37 48.16 97.01H47.96C46.09 95.81 44.04 94.69 40.79 94.69C38.67 94.69 35.6 95.74 33.21 95.74H31.32V88.01C31.32 91.41 31.65 94.3 33.98 94.3C40.79 94.3 39.45 80.96 52.42 80.96V81.35L52.41 81.33Z" fill="black"/>
<path d="M37.88 48.15V49.07H14.53V48.15C19.48 47.96 21.1 45.73 21.1 41.79V9.01C21.1 5.61 20.77 2.72 18.44 2.72C11.63 2.72 12.97 16.06 0 16.06V15.67C2.13 12.6 4.35 4.64 4.26 0H4.46C6.33 1.2 8.38 2.32 11.63 2.32C13.75 2.32 16.82 1.27 19.21 1.27H31.3V41.78C31.3 45.73 32.92 47.95 37.87 48.14L37.88 48.15ZM52.41 16.07C39.44 16.07 40.78 2.73 33.97 2.73C31.64 2.73 31.31 5.62 31.31 9.02V1.27H33.2C35.59 1.27 38.66 2.32 40.78 2.32C44.03 2.32 46.09 1.2 47.95 0H48.15C48.06 4.64 50.28 12.6 52.4 15.68V16.07H52.41Z" fill="black"/>
<path d="M55.57 63.48C58.25 57.06 63.35 47.63 75.16 47.63C84.42 47.63 95.92 54.05 95.92 72.22C95.92 84.66 87.1 96.35 76.74 96.35C72.49 96.35 70.14 94.87 67.21 94.87C64.63 94.87 62.18 95.16 60.33 96.35H60.13C60.22 91.75 58.02 84 55.91 80.95V80.57C69.52 80.57 69.61 94.76 76.72 94.76C82.34 94.76 86.92 88.93 86.92 78.86C86.92 64.72 79.7 56.21 70.18 56.21C62.73 56.21 58.6 59.79 56.34 63.98L55.57 63.48Z" fill="black"/>
<path d="M127.26 63.97C125 59.78 120.87 56.2 113.42 56.2C103.9 56.2 96.68 64.72 96.68 78.85C96.68 88.91 101.25 94.75 106.88 94.75C113.99 94.75 114.07 80.56 127.69 80.56V80.94C125.58 83.99 123.38 91.74 123.47 96.34H123.27C121.42 95.15 118.98 94.86 116.39 94.86C113.45 94.86 111.11 96.34 106.86 96.34C96.5 96.34 87.68 84.65 87.68 72.21C87.68 54.04 99.19 47.62 108.44 47.62C120.25 47.62 125.35 57.06 128.03 63.47L127.26 63.97Z" fill="black"/>
<path d="M128.04 33.58C125.36 40 120.26 49.43 108.45 49.43C99.19 49.43 87.69 43.01 87.69 24.84C87.69 12.4 96.51 0.709961 106.87 0.709961C111.12 0.709961 113.47 2.18996 116.4 2.18996C118.98 2.18996 121.43 1.89996 123.28 0.709961H123.48C123.39 5.30996 125.59 13.06 127.7 16.11V16.49C114.09 16.49 114 2.29996 106.89 2.29996C101.27 2.29996 96.69 8.12996 96.69 18.2C96.69 32.34 103.91 40.85 113.43 40.85C120.88 40.85 125.01 37.27 127.27 33.08L128.04 33.58Z" fill="black"/>
<path d="M56.34 33.09C58.6 37.28 62.73 40.86 70.18 40.86C79.7 40.86 86.92 32.34 86.92 18.21C86.92 8.14997 82.35 2.30997 76.72 2.30997C69.61 2.30997 69.53 16.5 55.91 16.5V16.12C58.02 13.07 60.22 5.31997 60.13 0.719971H60.33C62.18 1.90997 64.62 2.19997 67.21 2.19997C70.15 2.19997 72.49 0.719971 76.74 0.719971C87.1 0.719971 95.92 12.41 95.92 24.85C95.92 43.02 84.41 49.44 75.16 49.44C63.35 49.44 58.25 40 55.57 33.59L56.34 33.09Z" fill="black"/>
</g>
<defs>
<clipPath id="clip0_923_244">
<rect width="128.04" height="97" fill="white"/>
</clipPath>
</defs>
</svg>
