<?xml version="1.0" encoding="UTF-8"?>
<svg id="Layer_2" data-name="Layer 2" xmlns="http://www.w3.org/2000/svg" viewBox="0 0 316.46 297.09">
  <path fill="#000210" d="M172.58,95.71c-10.83-3.45-18.75-14.82-21.69-30.92h-2.51c-2.93,16.07-10.83,27.43-21.63,30.9v2.24c10.83,3.49,18.74,14.9,21.65,31.04h2.46c2.92-16.18,10.85-27.6,21.72-31.06v-2.2Z"/>
  <path fill="#000210" d="M291.5,95.71c-10.83-3.45-18.75-14.82-21.69-30.92h-2.51c-2.93,16.07-10.83,27.43-21.63,30.9v2.24c10.83,3.49,18.74,14.9,21.65,31.04h2.46c2.92-16.18,10.85-27.6,21.72-31.06v-2.2Z"/>
  <path fill="#000210" d="M93.72,189.55c-26.78,0-49.09-8.93-66.94-26.78C8.93,144.92,0,121.9,0,93.72c0-28.55,11.25-54.54,33.94-72.49C53.7,5.6,79.22,0,103.96,0,124.09,0,144.3,2.54,164.61,7.61l-13.65,46.99s-2.62,0-2.62,0c-5.63-7.64-11.63-15.06-18.32-21.8-5.84-5.89-12.13-10.62-19.13-15.02-3.61-2.27-7.32-4.4-11.23-6.11-15.38-6.73-34.9-4.15-47.93,6.62-2.21,1.83-4.23,3.89-6.04,6.12-8.93,11.03-13.39,23.98-13.39,38.86,0,43.4,25.99,108.69,77.18,108.69,21.53,0,41.04-8.31,58.54-24.94l2.36,2.63c-17.68,26.61-43.23,39.9-76.66,39.9Z"/>
  <path fill="#000210" d="M316.46,7.87l-143.35-.14-1.99,7.71c3.37,1.97,6.48,4.37,9.29,7.15,9.18,9.07,14.17,21.55,14.23,34.45l.05,10.23v158.86c0,9.87-6.1,16.3-15.36,19.7-.45.16-.89.32-1.34.46v3.42c16.54,5.32,28.61,22.74,33.06,47.39h3.75c4.46-24.7,16.56-42.14,33.15-47.42v-3.35c-.06-.02-.12-.04-.18-.06-9.67-3.14-16.13-9.8-16.13-19.97V13.15h37.13c6.33,4.93,38.36,44.78,44.69,49.7h3.02V7.87Z"/>
</svg>
