<svg width="86" height="44" viewBox="0 0 86 44" fill="none" xmlns="http://www.w3.org/2000/svg">
<g clip-path="url(#clip0_1172_211)">
<path d="M38.7435 17.2034C38.7435 14.3224 36.6705 11.5823 34.837 10.6935C34.837 10.6935 27.2999 7.04625 27.1817 6.99108C25.9815 6.41794 24.5177 5.42797 24.5177 3.4603C24.5177 1.983 25.6027 0.870438 27.5484 0.870438C29.494 0.870438 30.6881 1.86654 31.8579 3.16606C32.758 4.16829 33.6248 5.21037 34.5976 6.13597C35.2098 6.71831 36.0856 7.30984 37.1524 7.49373H37.3009C36.6433 5.19504 35.8735 2.33547 36.1372 0.00306492H35.8886C34.9825 0.493452 34.5855 0.824464 33.2732 0.824464C31.4276 0.824464 29.8365 0.00306492 27.5544 0.00306492C24.3692 0.00306492 21.5326 2.79214 21.5326 6.17888C21.5326 9.56562 24.1116 11.3709 25.73 12.1524C25.9149 12.2413 32.0185 15.1867 32.3762 15.3614C33.1368 15.7292 35.6826 16.7283 35.6826 19.3887C35.6826 20.5779 35.2037 21.4912 34.4764 22.1103C33.352 20.8353 31.7428 20.0201 30.0274 20.0201C29.2637 20.0201 28.5818 20.112 27.9363 20.2346C26.224 18.0984 24.1874 15.53 20.0506 15.53C21.2568 18.0677 21.3962 21.0867 21.1447 23.9891H21.1628C20.9234 25.212 20.587 26.4227 20.2779 27.5107H20.4264C21.4932 27.3238 22.3721 26.7353 22.9812 26.153C23.954 25.2274 24.8178 24.1853 25.7209 23.1831C25.833 23.0605 25.9452 22.9409 26.0573 22.8245C27.6484 23.226 29.4516 23.9861 31.667 23.9861C32.1337 23.9861 32.5944 23.9401 33.0429 23.8512C32.8732 25.5768 31.5215 26.4748 30.3972 27.0111C30.279 27.0663 22.7418 30.7136 22.7418 30.7136C21.478 31.3266 20.1021 32.8161 19.3687 34.6244C18.6353 32.8161 17.2594 31.3235 15.9956 30.7136C15.9956 30.7136 8.45847 27.0663 8.34028 27.0111C7.21591 26.4748 5.86426 25.5768 5.69454 23.8512C6.1461 23.9401 6.60676 23.9861 7.07044 23.9861C9.2828 23.9861 11.0891 23.226 12.6801 22.8245C12.7923 22.9409 12.9044 23.0605 13.0165 23.1831C13.9166 24.1853 14.7834 25.2274 15.7562 26.153C16.3684 26.7353 17.2442 27.3268 18.311 27.5107H18.4595C18.1504 26.4257 17.814 25.212 17.5746 23.9891H17.5928C17.3412 21.0867 17.4806 18.0677 18.6868 15.53C14.55 15.53 12.5165 18.0984 10.8011 20.2346C10.1586 20.112 9.47373 20.0201 8.71001 20.0201C6.99468 20.0201 5.38542 20.8323 4.26106 22.1103C3.53371 21.4912 3.05487 20.5779 3.05487 19.3887C3.05487 16.7283 5.59756 15.7292 6.36128 15.3614C6.72192 15.1867 12.8226 12.2413 13.0074 12.1524C14.6258 11.3709 17.2048 9.43383 17.2048 6.17888C17.2048 2.92393 14.3712 0 11.1891 0C8.907 0 7.31593 0.821399 5.47028 0.821399C4.15802 0.821399 3.761 0.490387 2.85485 0H2.60634C2.87 2.3324 2.10022 5.19198 1.44258 7.49067H1.59108C2.65786 7.30371 3.53674 6.71524 4.14589 6.13291C5.11872 5.2073 5.98245 4.16523 6.88558 3.163C8.0554 1.86654 9.31311 0.867373 11.1951 0.867373C13.0771 0.867373 14.2257 1.97994 14.2257 3.45723C14.2257 5.42797 12.762 6.41488 11.5618 6.98802C11.4436 7.04319 3.90647 10.6904 3.90647 10.6904C2.07295 11.5823 0 14.3224 0 17.2034C0 19.7994 1.49107 21.9264 3.56401 23.0697C3.0185 23.9891 2.69422 25.0557 2.69422 26.1928C2.69422 29.4478 5.27328 31.3848 6.89164 32.1663C7.07651 32.2552 13.1802 35.2006 13.5378 35.3753C14.2985 35.7431 16.8442 36.7423 16.8442 39.4026C16.8442 41.7902 14.9228 43.0683 12.9044 43.0683C9.21916 43.0683 8.29179 35.5439 1.21225 35.5439C2.41844 38.0816 2.55785 41.1006 2.3063 44.0031H2.61543C3.49431 43.1204 4.52472 42.5932 5.58847 42.5932C7.5705 42.5932 9.82528 43.9969 12.8286 43.9969C15.6289 43.9969 18.2747 42.3327 19.3717 39.8011C20.4688 42.3327 23.1115 43.9969 25.9149 43.9969C28.9182 43.9969 31.173 42.5932 33.155 42.5932C34.2188 42.5932 35.2492 43.1204 36.1281 44.0031H36.4372C36.1856 41.1006 36.3251 38.0816 37.5312 35.5439C30.4517 35.5439 29.5243 43.0683 25.8391 43.0683C23.8207 43.0683 21.8993 41.7871 21.8993 39.4026C21.8993 36.7423 24.442 35.7431 25.2057 35.3753C25.5663 35.2006 31.667 32.2552 31.8519 32.1663C33.4702 31.3848 36.0493 29.4478 36.0493 26.1928C36.0493 25.0557 35.725 23.9891 35.1795 23.0697C37.2524 21.9264 38.7435 19.7994 38.7435 17.2034ZM31.7428 23.0513C30.5123 23.0513 29.588 22.2084 28.6394 21.0897C29.0667 20.9579 29.5274 20.8844 30.0335 20.8844C31.7064 20.8844 32.7398 21.7088 32.9974 22.8766C32.5944 22.99 32.1701 23.0513 31.7428 23.0513ZM8.71001 20.8844C9.21613 20.8844 9.67678 20.9579 10.1041 21.0897C9.15551 22.2084 8.23117 23.0513 7.00074 23.0513C6.57039 23.0513 6.14913 22.99 5.74606 22.8766C6.00366 21.7088 7.04014 20.8844 8.71001 20.8844Z" fill="#000210"/>
<path d="M78.3174 23.8604C78.3174 30.5634 85.2211 30.9373 85.2211 34.5539C85.2211 36.8894 82.3814 39.5742 77.4839 39.5742C70.2014 39.5742 64.1977 36.2365 64.1977 31.4461C64.1977 29.2639 65.4039 28.326 68.0526 28.326H71.9197C73.8229 28.326 75.2292 29.4508 75.3231 31.869H75.7656V20.6667C75.8504 20.6637 75.9383 20.6606 76.0262 20.6606H85.997V20.2744C85.1757 19.8637 84.5423 18.647 84.5423 17.1513C84.5423 14.73 85.997 13.8197 85.997 10.2246C85.997 5.97045 82.6966 0.00305176 74.026 0.00305176C68.8073 0.00305176 64.0371 3.08943 62.6703 7.11367C61.3034 3.08943 56.5332 0.00305176 51.3145 0.00305176C42.6439 0.00305176 39.3435 5.97045 39.3435 10.2246C39.3435 13.8167 40.7982 14.7269 40.7982 17.1513C40.7982 18.6439 40.1679 19.8637 39.3435 20.2744V20.6606H49.3143C49.4022 20.6606 49.4901 20.6637 49.5749 20.6667V31.869H50.0174C50.1083 29.4539 51.5176 28.326 53.4208 28.326H57.2879C59.9366 28.326 61.1428 29.2669 61.1428 31.4461C61.1428 36.2335 55.1422 39.5742 47.8566 39.5742C42.9591 39.5742 40.1194 36.8894 40.1194 34.5539C40.1194 30.9404 47.0231 30.5634 47.0231 23.8604H46.8352C45.3502 24.8994 41.5771 25.9813 39.3405 25.9353V26.0334C39.9194 26.9437 40.0618 28.1482 40.0618 29.4202C40.0618 31.0783 39.3405 32.4698 39.3405 34.5631C39.3405 39.6631 44.8987 44.0031 51.0872 44.0031C58.0698 44.0031 61.5671 40.1321 62.6642 36.4051C63.7613 40.1321 67.2586 44.0031 74.2412 44.0031C80.4297 44.0031 85.9879 39.6631 85.9879 34.5631C85.9879 32.4698 85.2666 31.0813 85.2666 29.4202C85.2666 28.1482 85.409 26.9437 85.9879 26.0334V25.9353C83.7513 25.9783 79.9781 24.8963 78.4931 23.8604H78.3052H78.3174ZM73.0047 23.2965C73.2017 21.623 73.9836 20.8905 75.2776 20.7066C75.0807 22.38 74.2988 23.1126 73.0047 23.2965ZM62.6733 12.3148C62.843 13.078 63.0036 13.8013 63.0036 14.5829C63.0036 15.4932 62.9279 16.3667 62.6733 17.1237C62.4187 16.3667 62.343 15.4932 62.343 14.5829C62.343 13.8013 62.5036 13.078 62.6733 12.3148ZM50.072 20.7035C51.366 20.8874 52.1479 21.623 52.3449 23.2934C51.0508 23.1095 50.2689 22.3739 50.072 20.7035ZM53.0935 23.3455C53.0056 23.3455 52.9177 23.3424 52.8329 23.3394V12.1371H52.3904C52.2995 14.5522 50.8902 15.6801 48.987 15.6801H45.1199C42.4712 15.6801 41.265 14.7392 41.265 12.56C41.265 7.77263 47.2656 4.43186 54.5512 4.43186C59.4154 4.43186 62.246 7.07995 62.2854 9.40623C62.2854 9.41849 62.2854 9.43075 62.2854 9.44607C62.2854 9.46446 62.2854 9.47979 62.2854 9.49818C62.2278 13.0688 55.3846 13.4703 55.3846 20.1457H55.5725C56.9727 19.1649 60.4124 18.1474 62.6763 18.0738C64.9402 18.1474 68.3769 19.1649 69.7801 20.1426H69.968C69.968 13.4703 63.1249 13.0688 63.0673 9.49818C63.0673 9.47979 63.0673 9.46446 63.0673 9.44607C63.0673 9.43381 63.0673 9.42155 63.0673 9.40623C63.1036 7.08302 65.9342 4.43186 70.8014 4.43186C78.084 4.43186 84.0877 7.76956 84.0877 12.56C84.0877 14.7423 82.8815 15.6801 80.2327 15.6801H76.3656C74.4624 15.6801 73.0562 14.5553 72.9623 12.1371H72.5198V23.3394C72.4349 23.3424 72.347 23.3455 72.2591 23.3455H53.0995H53.0935ZM62.6733 30.8791C62.2429 29.3926 61.6126 28.4516 61.6126 26.8518C61.6126 25.6074 62.052 24.5531 62.6733 24.0014C63.2946 24.5561 63.734 25.6074 63.734 26.8518C63.734 28.4486 63.1036 29.3926 62.6733 30.8791Z" fill="#000210"/>
</g>
<defs>
<clipPath id="clip0_1172_211">
<rect width="86" height="44" fill="white"/>
</clipPath>
</defs>
</svg>
