<svg width="127" height="39" viewBox="0 0 127 39" fill="none" xmlns="http://www.w3.org/2000/svg">
<path d="M40.2503 19.5V19.8749H30.0359V19.5H30.4409C32.1326 19.5 33.0425 18.1662 32.7683 16.1999C32.7683 16.1897 32.7657 16.1769 32.7632 16.1667L30.7792 2.56822L27.7931 13.5041L25.904 19.8749L20.3366 3.29507L19.0755 13.1496C18.791 15.371 19.1704 19.5 21.6721 19.5H21.8669V19.8749H13.9517V19.5H14.0978C16.0484 19.5 17.5991 16.5314 18.0426 13.6163C18.0503 13.5704 18.0554 13.5245 18.0631 13.4786L19.3575 4.20809C19.5677 2.51721 18.9217 0.744714 16.8686 0.744714H16.6636V0.369812H23.9482L27.3189 12.081L30.4819 0.489679L30.5126 0.372362H37.8511V0.747264H37.4385C35.2905 0.747264 34.8573 2.45855 35.0444 3.66232L36.9284 15.7816C37.218 17.6434 37.9691 19.5026 40.0453 19.5026H40.2503V19.5Z" fill="#000210"/>
<path d="M0 0.747399V0.372498H10.2144V0.747399H9.80945C8.11773 0.747399 7.20778 2.08123 7.48205 4.04756C7.48205 4.05776 7.48461 4.07051 7.48717 4.08071L9.47111 17.6792L12.4573 6.74328L14.3489 0.372498L19.9137 16.9549L21.1748 7.10033C21.4593 4.87897 21.0799 0.74995 18.5782 0.74995H18.3834V0.375048H26.2987V0.74995H26.1526C24.2019 0.74995 22.6512 3.71856 22.2078 6.63361C22.2001 6.67952 22.1949 6.72543 22.1873 6.77133L20.8928 16.0419C20.6826 17.7328 21.3286 19.5052 23.3817 19.5052H23.5868V19.8801H16.3021L12.9315 8.16893L9.76332 19.7603L9.73256 19.8776H2.39918V19.5027H2.81186C4.95984 19.5027 5.39302 17.7914 5.2059 16.5876L3.32194 4.46836C3.03229 2.60916 2.28127 0.747399 0.205058 0.747399H0Z" fill="#000210"/>
<path d="M40.2502 38.6277V39.0026H30.0358V38.6277H30.4408C32.1325 38.6277 33.0424 37.2939 32.7682 35.3275C32.7682 35.3173 32.7656 35.3046 32.763 35.2944L30.7791 21.6959L27.7929 32.6318L25.9038 39.0026L20.3391 22.4202L19.078 32.2748C18.7935 34.4961 19.1728 38.6251 21.6745 38.6251H21.8693V39H13.9541V38.6251H14.1002C16.0508 38.6251 17.6016 35.6565 18.045 32.7415C18.0527 32.6956 18.0578 32.6497 18.0655 32.6038L19.3599 23.3332C19.5701 21.6423 18.9242 19.8698 16.871 19.8698H16.666V19.4949H23.9507L27.3213 31.2062L30.4895 19.6148L30.5202 19.4975H37.8587V19.8724H37.446C35.2981 19.8724 34.8649 21.5837 35.052 22.7874L36.936 34.9067C37.2256 36.7685 37.9766 38.6277 40.0528 38.6277H40.2579H40.2502Z" fill="#000210"/>
<path d="M0 19.8749V19.5H10.2144V19.8749H9.80945C8.11773 19.8749 7.20778 21.2087 7.48205 23.1751C7.48205 23.1853 7.48461 23.198 7.48717 23.2082L9.47111 36.8067L12.4573 25.8708L14.3464 19.5L19.9111 36.0824L21.1722 26.2278C21.4567 24.0065 21.0774 19.8775 18.5757 19.8775H18.3809V19.5025H26.2961V19.8775H26.15C24.1994 19.8775 22.6486 22.8461 22.2052 25.7611C22.1975 25.807 22.1924 25.8529 22.1847 25.8988L20.8903 35.1694C20.6801 36.8603 21.326 38.6327 23.3792 38.6327H23.5842V39.0076H16.2995L12.9289 27.2964L9.76075 38.8878L9.72999 39.0051H2.39918V38.6302H2.81186C4.95984 38.6302 5.39302 36.9189 5.2059 35.7151L3.32194 23.5959C3.03229 21.7341 2.28127 19.8749 0.205058 19.8749H0Z" fill="#000210"/>
<path d="M46.7249 15.9066C45.4689 15.0446 42.7339 14.1443 40.8423 14.18C40.8423 14.18 40.9961 12.4355 40.9961 11.3771C40.9961 10.3825 40.6577 8.65337 40.6577 6.91148V0.372375H60.151V6.70235C60.151 8.44424 59.8229 10.079 59.8229 11.0737C59.8229 12.1321 59.4897 13.04 59.9793 13.7974C59.9793 13.7974 55.6295 14.7411 54.3761 15.6031H54.2197C54.2197 10.1683 59.5871 9.78573 59.5871 6.6998C59.5871 5.06247 58.79 4.5014 57.1803 4.5014H50.8004V4.56771C50.8004 5.07778 50.8978 5.39657 51.7821 6.74316L53.5456 9.01297L53.4533 9.16599C53.4533 9.16599 51.7821 8.67888 50.4133 8.67888C49.0446 8.67888 47.399 9.1813 47.399 9.1813L47.2888 9.02317L49.0446 6.74571C49.9315 5.39912 50.0263 5.07778 50.0263 4.57026V4.50395H43.6285C42.1521 4.50395 41.2524 5.16704 41.2524 6.91658C41.2524 9.63526 46.8812 10.3315 46.8812 15.9066H46.7249Z" fill="#000210"/>
<path d="M46.8837 6.27136C46.8837 11.849 41.2548 12.5427 41.2548 15.2614C41.2548 17.0109 42.1545 17.674 43.6309 17.674H50.0287V17.6077C50.0287 17.0976 49.9313 16.7788 49.047 15.4322L47.2912 13.1548L47.4014 12.9966C47.4014 12.9966 49.047 13.4991 50.4158 13.4991C51.7845 13.4991 53.4558 13.0119 53.4558 13.0119L53.548 13.165L51.7845 15.4348C50.9002 16.7814 50.8028 17.1027 50.8028 17.6102V17.6765H57.1827C58.7924 17.6765 59.5896 17.1155 59.5896 15.4781C59.5896 12.3922 54.2222 12.0097 54.2222 6.57485H54.3785C55.6345 7.43942 59.9817 8.38305 59.9817 8.38305C59.4922 9.14051 59.8254 10.0484 59.8254 11.1068C59.8254 12.1015 60.1535 13.7388 60.1535 15.4781V21.8081H40.6602V15.269C40.6602 13.5271 40.9985 11.798 40.9985 10.8033C40.9985 9.74494 40.8447 8.0005 40.8447 8.0005C42.7364 8.03621 45.4713 7.13593 46.7273 6.27391H46.8837V6.27136Z" fill="#000210"/>
<path d="M46.7249 33.1036C45.4689 32.2416 42.7339 31.3413 40.8423 31.377C40.8423 31.377 40.9961 29.6326 40.9961 28.5742C40.9961 27.5795 40.6577 25.8504 40.6577 24.1085V17.5694H60.151V23.8994C60.151 25.6413 59.8229 27.276 59.8229 28.2707C59.8229 29.3291 59.4897 30.237 59.9793 30.9945C59.9793 30.9945 55.6295 31.9381 54.3761 32.8001H54.2197C54.2197 27.3653 59.5871 26.9827 59.5871 23.8968C59.5871 22.2595 58.79 21.6984 57.1803 21.6984H50.8004V21.7647C50.8004 22.2748 50.8978 22.5936 51.7821 23.9402L53.5456 26.21L53.4533 26.363C53.4533 26.363 51.7821 25.8759 50.4133 25.8759C49.0446 25.8759 47.399 26.3783 47.399 26.3783L47.2888 26.2202L49.0446 23.9427C49.9315 22.5961 50.0263 22.2748 50.0263 21.7673V21.701H43.6285C42.1521 21.701 41.2524 22.3641 41.2524 24.1136C41.2524 26.8323 46.8812 27.5285 46.8812 33.1036H46.7249Z" fill="#000210"/>
<path d="M46.8837 23.4684C46.8837 29.046 41.2548 29.7397 41.2548 32.4584C41.2548 34.2079 42.1545 34.871 43.6309 34.871H50.0287V34.8047C50.0287 34.2946 49.9313 33.9758 49.047 32.6293L47.2912 30.3518L47.4014 30.1937C47.4014 30.1937 49.047 30.6961 50.4158 30.6961C51.7845 30.6961 53.4558 30.209 53.4558 30.209L53.548 30.362L51.7845 32.6318C50.9002 33.9784 50.8028 34.2997 50.8028 34.8073V34.8736H57.1827C58.7924 34.8736 59.5896 34.3125 59.5896 32.6752C59.5896 29.5892 54.2222 29.2067 54.2222 23.7719H54.3785C55.6345 24.6364 59.9817 25.5801 59.9817 25.5801C59.4922 26.3375 59.8254 27.2455 59.8254 28.3039C59.8254 29.2985 60.1535 30.9358 60.1535 32.6752V39.0051H40.6602V32.466C40.6602 30.7241 40.9985 28.995 40.9985 28.0004C40.9985 26.942 40.8447 25.1975 40.8447 25.1975C42.7364 25.2332 45.4713 24.333 46.7273 23.4709H46.8837V23.4684Z" fill="#000210"/>
<path d="M81.0749 19.7781C81.0749 19.7781 80.6647 19.8623 80.5981 19.6583C80.1367 18.2607 78.0477 17.1538 73.6518 17.1538H61.5815V16.8809L77.1429 4.40971H69.0021C63.8961 4.40971 61.9558 5.89656 61.9558 7.6359H61.5815V0.372498H61.9558C61.9558 2.05318 63.9628 3.60124 69.0021 3.60124H77.6324C79.5856 3.60124 80.6981 0.760151 80.6981 0.372498H81.0749V7.06207L68.9534 16.3454H73.6518C78.6885 16.3454 80.6981 14.8891 80.6981 13.211H81.0749V19.7781Z" fill="#000210"/>
<path d="M97.4718 39.0051H97.095C97.095 37.327 95.0855 36.1691 90.0487 36.1691H77.9785V35.8963L93.5398 23.425H85.399C80.2931 23.425 78.3527 24.9119 78.3527 26.6512H77.9785V19.3878H78.3527C78.3527 21.0685 80.3598 22.6166 85.399 22.6166H94.0294C95.9826 22.6166 97.095 19.7755 97.095 19.3878H97.4718V26.0774L85.3503 35.3607H90.0487C95.0855 35.3607 97.095 33.9044 97.095 32.2263H97.4718V39.0077V39.0051Z" fill="#000210"/>
<path d="M100.63 0.372362V0.747264C98.9431 0.747264 97.4795 2.74674 97.4795 7.75818V19.7678H97.2053L84.6711 4.2846V12.3845C84.6711 17.4648 86.1655 19.3954 87.9136 19.3954V19.7678H80.6135V19.3954C82.3027 19.3954 83.8586 17.3985 83.8586 12.3845V3.79494C83.8586 1.85157 81.0031 0.744714 80.6135 0.744714V0.369812H87.3369L96.667 12.4304V7.75563C96.667 2.74419 95.2034 0.744714 93.5168 0.744714V0.369812H100.63V0.372362Z" fill="#000210"/>
<path d="M81.5977 19.398V19.7729C79.9111 19.7729 78.4475 21.7724 78.4475 26.7838V39.0077H78.1733L65.6391 23.3103V31.4102C65.6391 36.4905 67.1335 38.4211 68.8816 38.4211V38.7934H61.5815V38.4211C63.2707 38.4211 64.8266 36.4242 64.8266 31.4102V22.8231C64.8266 20.8798 61.9712 19.7729 61.5815 19.7729V19.398H68.3049L77.635 31.4586V26.7838C77.635 21.7724 76.1714 19.7729 74.4848 19.7729V19.398H81.5977Z" fill="#000210"/>
<path d="M112.105 19.6811V19.3062C114.071 19.1532 115.632 16.5646 115.632 11.9204L115.727 6.2943C115.727 3.93012 114.004 1.51239 110.644 1.51239C106.961 1.51239 105.761 3.93012 105.761 6.2943L105.666 16.7252C105.666 18.3269 106.325 19.2297 108.345 19.3062V19.6811H98.7302V19.3062C100.75 19.2297 101.409 18.3269 101.409 16.7252V6.01631C101.409 2.04031 105.149 0.00512695 109.209 0.00512695C113.269 0.00512695 116.632 2.24689 116.632 6.01631V11.9255C116.632 16.7252 117.957 19.1863 119.592 19.3113V19.6862H112.103L112.105 19.6811Z" fill="#000210"/>
<path d="M106.135 19.6811V19.3062C107.771 19.1812 109.096 16.7227 109.096 11.9204V6.01118C109.096 2.24431 112.459 0 116.519 0C120.579 0 124.319 2.03518 124.319 6.01118V16.7227C124.319 18.3243 124.978 19.2271 126.997 19.3036V19.6785H117.383V19.3036C119.403 19.2271 120.061 18.3243 120.061 16.7227L119.967 6.29172C119.967 3.92754 118.767 1.50981 115.084 1.50981C111.723 1.50981 110.001 3.92754 110.001 6.29172L110.096 11.9178C110.096 16.5594 111.657 19.1481 113.623 19.3036V19.6785H106.133L106.135 19.6811Z" fill="#000210"/>
<path d="M113.625 19.3113V19.6862C111.659 19.8392 110.098 22.4278 110.098 27.072L110.003 32.6981C110.003 35.0622 111.726 37.48 115.086 37.48C118.77 37.48 119.969 35.0622 119.969 32.6981L120.064 22.2671C120.064 20.6655 119.405 19.7627 117.385 19.6862V19.3113H127V19.6862C124.98 19.7627 124.321 20.6655 124.321 22.2671V32.9786C124.321 36.9546 120.582 38.9898 116.522 38.9898C112.461 38.9898 109.098 36.748 109.098 32.9786V27.0694C109.098 22.2697 107.773 19.8086 106.138 19.6836V19.3087H113.628L113.625 19.3113Z" fill="#000210"/>
<path d="M119.595 19.3113V19.6862C117.959 19.8111 116.634 22.2697 116.634 27.072V32.9812C116.634 36.748 113.271 38.9924 109.211 38.9924C105.151 38.9924 101.411 36.9572 101.411 32.9812V22.2697C101.411 20.6681 100.752 19.7652 98.7327 19.6887V19.3138H108.347V19.6887C106.327 19.7652 105.669 20.6681 105.669 22.2697L105.764 32.7006C105.764 35.0648 106.963 37.4825 110.647 37.4825C114.007 37.4825 115.729 35.0648 115.729 32.7006L115.635 27.0746C115.635 22.4329 114.074 19.8443 112.108 19.6887V19.3138H119.597L119.595 19.3113Z" fill="#000210"/>
</svg>
