<svg width="136" height="97" viewBox="0 0 136 97" fill="none" xmlns="http://www.w3.org/2000/svg">
<g clip-path="url(#clip0_923_164)">
<path d="M135.21 47.54V48.47H109.22V47.54C116.01 47.54 116.97 42.63 116.19 40.33C116.19 40.33 116.19 40.32 116.19 40.31L113.17 31.53H95.61L92.97 38.09C91.53 42.71 94.35 47.33 101.57 47.54V48.47H80.13V47.54C85.68 47.17 90.44 39.75 92.77 33.61L101.52 8.82C103.26 3.95 101.15 0.93 95.8 0.93V0H113.68L126.67 37.53C128.05 41.23 130.01 47.15 135.21 47.54ZM112.5 29.61L104.52 5.96L96.32 29.61H112.5Z" fill="black"/>
<path d="M80.13 48.4901V47.5601H106.12V48.4901C99.33 48.4901 98.37 53.4001 99.15 55.7001C99.15 55.7001 99.15 55.7101 99.15 55.7201L102.17 64.5001H119.73L122.37 57.9401C123.81 53.3201 120.99 48.7001 113.77 48.4901V47.5601H135.21V48.4901C129.66 48.8601 124.9 56.2801 122.57 62.4201L113.82 87.2101C112.08 92.0801 114.19 95.1001 119.54 95.1001V96.0301H101.66L88.67 58.5001C87.29 54.8001 85.33 48.8801 80.13 48.4901ZM102.83 66.4201L110.81 90.0701L119.01 66.4201H102.83Z" fill="black"/>
<path d="M42.97 61.7699C42.97 70.2699 34.15 74.8599 24.61 74.8599H16.63V88.8199C16.63 92.7299 18.23 94.9399 23.14 95.1299V96.0399H0V95.1299C4.91 94.9399 6.51 92.7299 6.51 88.8199V54.8999C6.51 50.9899 4.91 48.7799 0 48.5999V47.6899H16.62C18.99 47.6899 19.2 47.6899 21.67 47.6899C31.74 47.6899 42.96 53.0499 42.96 61.7799L42.97 61.7699ZM32.19 61.5399C32.19 54.6899 27.71 49.6199 21.57 49.6199C18.32 49.6199 16.62 50.4799 16.62 52.3399V72.9299H23.72C29.16 72.9299 32.18 68.5999 32.18 61.5399H32.19Z" fill="black"/>
<path d="M57.44 47.67H62.49H79.11V48.58C74.2 48.77 72.6 50.97 72.6 54.88V88.8C72.6 92.71 74.2 94.92 79.11 95.11V96.02H55.98V95.11C60.89 94.92 62.49 92.71 62.49 88.8V74.84H54.51C44.97 74.84 36.15 70.25 36.15 61.75C36.15 53.25 47.37 47.66 57.44 47.66V47.67ZM55.39 72.93H62.49V52.34C62.49 50.48 60.8 49.62 57.54 49.62C51.4 49.62 46.92 54.7 46.92 61.54C46.92 68.38 49.94 72.93 55.38 72.93H55.39Z" fill="black"/>
<path d="M36.15 34.4C36.15 25.9 44.97 21.31 54.52 21.31H62.5V7.22C62.5 3.31 60.9 1.1 55.99 0.91V0H79.12V0.91C74.21 1.1 72.61 3.31 72.61 7.22V41.28C72.61 45.19 74.21 47.4 79.12 47.58V48.49H62.5C60.13 48.49 59.92 48.49 57.45 48.49C47.38 48.49 36.16 43.13 36.16 34.4H36.15ZM46.93 34.62C46.93 41.47 51.41 46.54 57.55 46.54C60.8 46.54 62.5 45.68 62.5 43.82V23.23H55.4C49.96 23.23 46.94 27.56 46.94 34.62H46.93Z" fill="black"/>
<path d="M21.67 48.49H16.62H0V47.58C4.91 47.39 6.51 45.19 6.51 41.28V7.22C6.51 3.31 4.91 1.1 0 0.91V0H23.13V0.91C18.22 1.1 16.62 3.31 16.62 7.22V21.31H24.6C34.14 21.31 42.96 25.9 42.96 34.4C42.96 42.9 31.74 48.49 21.67 48.49ZM23.72 23.23H16.62V43.82C16.62 45.68 18.31 46.54 21.57 46.54C27.71 46.54 32.19 41.46 32.19 34.62C32.19 27.78 29.17 23.23 23.73 23.23H23.72Z" fill="black"/>
</g>
<defs>
<clipPath id="clip0_923_164">
<rect width="135.21" height="96.03" fill="white"/>
</clipPath>
</defs>
</svg>
