<?xml version="1.0" encoding="UTF-8"?>
<svg id="Layer_2" data-name="Layer 2" xmlns="http://www.w3.org/2000/svg" viewBox="0 0 125.16 64.54">
  <path d="M55.05,31.75v.62h-17.18v-.62h.52c3.48,0,3.98-2.6,2.84-4.65,0,0-5.11-9.12-5.11-9.12l-3.1,4.92c-1.4,2.48-2.2,8.85,1.94,8.85v.62h-13.84v-.62c4.73-1.47,9.28-7.38,10.7-9.46l3.58-5.6s-6.48-11-6.55-11.14c-1.21-2.11-3.2-4.92-5.79-4.92V0h15.93v.62c-2.56,0-3.77,2.26-2.69,4.26.02.03,4.46,7.84,4.46,7.84l2.31-3.7c1.73-2.81,1.4-8.4-1.67-8.4V0h12.43v.62c-3.25.59-7.68,6.07-9.19,8.29l-3.2,5.01s7.53,12.79,8.14,13.75c1.25,1.96,3.07,4.08,5.47,4.08Z"/>
  <path d="M5.47,27.67c.61-.96,8.14-13.75,8.14-13.75l-3.2-5.01C8.9,6.69,4.47,1.21,1.22.62v-.62h12.43v.62c-3.07,0-3.41,5.58-1.67,8.4l2.31,3.7s4.45-7.81,4.46-7.84c1.08-2-.13-4.26-2.69-4.26V0h15.93v.62c-2.59,0-4.58,2.81-5.79,4.92-.08.14-6.55,11.14-6.55,11.14l3.58,5.6c1.42,2.07,5.96,7.98,10.7,9.46v.62h-13.84v-.62c4.14,0,3.34-6.37,1.94-8.85l-3.1-4.92s-5.1,9.11-5.11,9.12c-1.14,2.05-.64,4.65,2.84,4.65h.52v.62H0v-.62c2.4,0,4.22-2.12,5.47-4.08Z"/>
  <path d="M49.58,36.87c-.61.96-8.14,13.75-8.14,13.75l3.2,5.01c1.51,2.22,5.94,7.7,9.19,8.29v.62h-12.43v-.62c3.07,0,3.41-5.58,1.67-8.4l-2.31-3.7s-4.45,7.81-4.46,7.84c-1.08,2,.13,4.26,2.69,4.26v.62h-15.93v-.62c2.59,0,4.58-2.81,5.79-4.92.08-.14,6.55-11.14,6.55-11.14l-3.58-5.6c-1.42-2.07-5.96-7.98-10.7-9.46v-.62h13.84v.62c-4.14,0-3.34,6.37-1.94,8.85l3.1,4.92s5.1-9.11,5.11-9.12c1.14-2.05.64-4.65-2.84-4.65h-.52v-.62h17.18v.62c-2.4,0-4.22,2.12-5.47,4.08Z"/>
  <path d="M0,32.79v-.62s17.18,0,17.18,0v.62s-.52,0-.52,0c-3.48,0-3.98,2.6-2.84,4.65,0,0,5.11,9.12,5.11,9.12l3.1-4.92c1.4-2.48,2.2-8.85-1.94-8.85v-.62s13.84,0,13.84,0v.62c-4.73,1.47-9.28,7.38-10.7,9.46l-3.58,5.6s6.48,11,6.55,11.14c1.21,2.11,3.2,4.92,5.79,4.92v.62s-15.93,0-15.93,0v-.62c2.56,0,3.77-2.26,2.69-4.26-.02-.03-4.46-7.84-4.46-7.84l-2.31,3.7c-1.73,2.81-1.4,8.4,1.67,8.4v.62s-12.43,0-12.43,0v-.62c3.25-.59,7.68-6.07,9.19-8.29l3.2-5.01s-7.53-12.79-8.14-13.75C4.22,34.91,2.4,32.79,0,32.79Z"/>
  <path d="M89.82,32.33v-.62c4.36,0,5.57-5.34,3.83-9.31l-5.67-13.03-6.91,16.84c-.7,1.67-.25,5.49,3.62,5.49v.62h-16.59v-.62c2.35,0,4.04-1.95,4.76-3.58L85.06,0h.24s9.71,21.81,9.71,21.81c1.23,2.76,4.56,9.17,8.08,9.9v.62h-13.27Z"/>
  <path d="M90.16,32.33v-.62c3.52-.74,6.85-7.15,8.08-9.9L107.96,0h.24l12.2,28.13c.72,1.63,2.41,3.58,4.76,3.58v.62h-16.6v-.62c3.87,0,4.32-3.82,3.62-5.49l-6.91-16.84-5.67,13.03c-1.74,3.96-.53,9.31,3.83,9.31v.62h-13.27Z"/>
  <path d="M103.09,32.21v.62c-3.52.74-6.85,7.15-8.08,9.9l-9.71,21.81h-.24s-12.2-28.13-12.2-28.13c-.72-1.63-2.41-3.58-4.76-3.58v-.62h16.6v.62c-3.87,0-4.32,3.82-3.62,5.49l6.91,16.84,5.67-13.03c1.74-3.96.53-9.31-3.83-9.31v-.62h13.27Z"/>
  <path d="M103.44,32.21v.62c-4.36,0-5.57,5.34-3.83,9.31l5.67,13.03,6.91-16.84c.7-1.67.25-5.49-3.62-5.49v-.62h16.59v.62c-2.35,0-4.04,1.95-4.76,3.58l-12.2,28.13h-.24s-9.71-21.81-9.71-21.81c-1.23-2.76-4.56-9.17-8.08-9.9v-.62h13.27Z"/>
  <g>
    <path d="M65.02,4.93v22.47c0,2.67,1.09,4.18,4.44,4.3v.62h-15.79v-.62c3.35-.13,4.44-1.63,4.44-4.3V4.93c0-2.67-1.09-4.18-4.44-4.3v-.62h15.79v.62c-3.35.13-4.44,1.63-4.44,4.3Z"/>
    <path d="M69.46,63.92v.62h-15.79v-.62c3.35-.13,4.44-1.63,4.44-4.3v-22.47c0-2.67-1.09-4.18-4.44-4.3v-.62h15.79v.62c-3.35.13-4.44,1.63-4.44,4.3v22.47c0,2.67,1.09,4.18,4.44,4.3Z"/>
  </g>
</svg>