<svg width="127" height="97" viewBox="0 0 127 97" fill="none" xmlns="http://www.w3.org/2000/svg">
<g clip-path="url(#clip0_922_147)">
<path d="M126.61 35.12C126.61 45.06 115.73 48.59 104.8 48.59H94.86H78.09V47.67C83.04 47.48 84.66 44.97 84.66 41.31V8.07004C84.66 4.41004 83.04 1.90004 78.09 1.71004V0.790039H101.71C111.63 0.790039 123.2 4.18004 123.2 12.19C123.2 19.13 115.47 21.82 111.99 22.08C116.16 22.67 126.62 25.87 126.62 35.12H126.61ZM94.86 7.07004V21.52H101.26C109.19 21.52 113.2 17.67 113.2 12.19C113.2 6.71004 109.36 2.60004 101.7 2.60004C97.19 2.60004 94.87 4.15004 94.87 7.06004L94.86 7.07004ZM115.71 35.12C115.71 28.29 110.16 23.27 101.25 23.27H94.85V41.67C94.85 45.32 97.77 46.72 102.89 46.72C109.4 46.72 115.71 42.96 115.71 35.13V35.12Z" fill="black"/>
<path d="M68.69 22.08C65.21 21.82 57.48 19.13 57.48 12.19C57.48 4.18004 69.05 0.790039 78.97 0.790039H85.82H102.59V1.71004C97.64 1.90004 96.02 4.41004 96.02 8.07004V41.3C96.02 44.96 97.64 47.47 102.59 47.66V48.58H75.87C64.94 48.58 54.06 45.05 54.06 35.11C54.06 25.86 64.53 22.66 68.69 22.07V22.08ZM77.78 46.71C82.89 46.71 85.82 45.31 85.82 41.66V23.26H79.42C70.51 23.26 64.96 28.28 64.96 35.11C64.96 42.94 71.27 46.7 77.78 46.7V46.71ZM78.98 2.60004C71.32 2.60004 67.48 6.80004 67.48 12.19C67.48 17.58 71.48 21.52 79.42 21.52H85.82V7.07004C85.82 4.15004 83.49 2.61004 78.99 2.61004L78.98 2.60004Z" fill="black"/>
<path d="M53.23 60.97C53.23 51.03 64.11 47.5 75.04 47.5H84.98H101.75V48.42C96.8 48.61 95.18 51.12 95.18 54.78V88.01C95.18 91.67 96.8 94.18 101.75 94.37V95.29H78.13C68.21 95.29 56.64 91.9 56.64 83.89C56.64 76.95 64.37 74.26 67.85 74C63.68 73.41 53.22 70.21 53.22 60.96L53.23 60.97ZM64.13 60.97C64.13 67.8 69.68 72.82 78.59 72.82H84.99V54.42C84.99 50.77 82.07 49.37 76.95 49.37C70.44 49.37 64.13 53.13 64.13 60.96V60.97ZM84.99 89.02V74.57H78.59C70.66 74.57 66.65 78.42 66.65 83.9C66.65 89.38 70.49 93.49 78.15 93.49C82.66 93.49 84.98 91.94 84.98 89.03L84.99 89.02Z" fill="black"/>
<path d="M111.15 74.01C114.63 74.27 122.36 76.96 122.36 83.9C122.36 91.91 110.79 95.3 100.87 95.3H94.02H77.25V94.38C82.2 94.19 83.82 91.68 83.82 88.02V54.79C83.82 51.13 82.2 48.62 77.25 48.43V47.51H103.97C114.9 47.51 125.78 51.04 125.78 60.98C125.78 70.23 115.31 73.43 111.15 74.02V74.01ZM102.06 49.38C96.95 49.38 94.02 50.78 94.02 54.43V72.83H100.42C109.33 72.83 114.88 67.81 114.88 60.98C114.88 53.15 108.57 49.39 102.06 49.39V49.38ZM100.86 93.48C108.52 93.48 112.36 89.28 112.36 83.89C112.36 78.5 108.36 74.56 100.42 74.56H94.02V89.01C94.02 91.93 96.35 93.47 100.85 93.47L100.86 93.48Z" fill="black"/>
<path d="M31.02 54.69V94.83H19.04C16.67 94.83 13.63 93.79 11.53 93.79C8.31 93.79 6.27 94.9 4.42 96.09H4.22C4.31 91.49 2.11 83.61 0.0100002 80.56V80.18C12.85 80.18 11.53 93.4 18.27 93.4C20.58 93.4 20.91 90.54 20.91 87.17V54.69C20.91 50.78 19.31 48.57 14.4 48.39V47.48H37.53V48.39C32.62 48.58 31.02 50.78 31.02 54.69ZM51.92 80.55C49.82 83.6 47.62 91.49 47.71 96.08H47.51C45.66 94.89 43.62 93.78 40.4 93.78C38.3 93.78 35.26 94.82 32.89 94.82H31.02V87.16C31.02 90.53 31.35 93.39 33.66 93.39C40.4 93.39 39.08 80.17 51.93 80.17V80.55H51.92Z" fill="black"/>
<path d="M37.53 47.71V48.62H14.4V47.71C19.31 47.52 20.91 45.32 20.91 41.41V8.92C20.91 5.55 20.58 2.69 18.27 2.69C11.52 2.7 12.85 15.92 0 15.92V15.54C2.11 12.48 4.31 4.6 4.22 0H4.42C6.27 1.19 8.31 2.3 11.53 2.3C13.63 2.3 16.67 1.26 19.04 1.26H31.02V41.4C31.02 45.31 32.62 47.52 37.53 47.7V47.71ZM51.92 15.92C39.07 15.92 40.4 2.7 33.65 2.7C31.34 2.7 31.01 5.56 31.01 8.93V1.26H32.88C35.25 1.26 38.29 2.3 40.39 2.3C43.61 2.3 45.65 1.19 47.5 0H47.7C47.61 4.6 49.81 12.48 51.91 15.53V15.91L51.92 15.92Z" fill="black"/>
</g>
<defs>
<clipPath id="clip0_922_147">
<rect width="126.61" height="96.09" fill="white"/>
</clipPath>
</defs>
</svg>
